<mxfile host="65bd71144e">
    <diagram id="FjM9aRli7jyQ9Q8k-OvG" name="Page-1">
        <mxGraphModel dx="1823" dy="568" grid="1" gridSize="10" guides="1" tooltips="1" connect="1" arrows="1" fold="1" page="1" pageScale="1" pageWidth="850" pageHeight="1100" math="0" shadow="0">
            <root>
                <mxCell id="0"/>
                <mxCell id="1" parent="0"/>
                <mxCell id="2" value="" style="shape=image;verticalLabelPosition=bottom;labelBackgroundColor=default;verticalAlign=top;aspect=fixed;imageAspect=0;image=data:image/png,iVBORw0KGgoAAAANSUhEUgAAA7EAAAHJCAYAAABTzb7cAAAAAXNSR0IArs4c6QAAAARnQU1BAACxjwv8YQUAAAAJcEhZcwAAFxEAABcRAcom8z8AAI7sSURBVHhe7d0HfBzV1ffxv3pvtiz33rsx7vQOoYSQQEge8qYnJEBIgBQIhN57N2BMLzYG29jg3jvuvVfJlmWr9653znhEIMmDZp11Hjb8vp8oMndXu6vVnL333LlzT1iDQwAAAAAAhIBw7zsAAAAAAF97JLEAAAAAgJBBEgsAAAAACBkksQAAAACAkEESCwAAAAAIGSSxAAAAAICQQRILAAAAAAgZJLEAAAAAgJBBEgsAAAAACBkksQAAAACAkEESCwAAAAAIGSSxAAAAAICQQRILAAAAAAgZJLEAAAAAgJBBEgsAAAAACBkksQAAAACAkEESCwAAAAAIGSSxAAAAAICQQRILAAAAAAgZJLEAAAAAgJBBEgsAAAAACBkksQAAAACAkEESCwAAAAAIGSSxAAAAAICQQRILAAAAAAgZJLEAAAAAgJBBEgsAAAAACBkksQAAAACAkEESCwAAAAAIGSSxAAAAAICQQRILAAAAAAgZJLEAAAAAgJBBEgsAAAAACBkksQAAAACAkEESCwAAAAAIGSSxAAAAAICQQRILAAAAAAgZJLEAAAAAgJBBEgsAAAAACBkksQAAAACAkEESCwAAAAAIGSSxAAAAAICQQRILAAAAAAgZYQ0O79/A11Z5ebl27tzpflVVVSksLMy7Bd90diwkJiaqT58+6tq1q9cKY7GyZ88eN25KSkqIG3xJQkKCGzO9e/dWRESE14pGubm52rZtmw4ePKi6ujqvFZAiIyOVnp6ufv36KSMjw2uFKSoq0vbt23XgwAFVV1d7rYAUHh6uZs2aqVevXurQoYPXevxIYhESMjMz9eabb2rWrFlq3ry54uLiGFR8w1lCVl9fr4qKClVWVuoHP/iBfvKTn3i3whw9elTjx4/XJ5984nYeqampxM03XONERmlpqXssnHnmmbr++uvdz1R82fLly/XGG2+4A3JLVCzRt88cfHPZ56glZmVlZUpLS9O1116r0047zbsVZsuWLXr99de1fv16d4I5NjaWuPmGaxyv2QRHSkqKrrzySn33u9/1bj1+JLEICTYb/swzz2jDhg3ugW8zoDU1Nd6t+CaywYQNwvfu3avp06frsssu09/+9jfvVhib/HnppZe0ePFinXrqqe7sJzPj32w2mLAvi5ulS5eqe/fuevjhh5WUlOTdA42mTZuml19+2f33xRdfrKioKCaBvuHsDKxNAK1du9Zd4XLDDTcEZTD+38Qmf5577jl39c8ZZ5yhFi1aMF77hmscr61evdqNGxuvWez8u0hiERJsZu/FF190Z3Huvfded1acQ/ebrXFmzwYTDzzwgAYPHqz77rvPuxVm//79evXVV92Exc4Y2HtE3HyzNZ6JtQnBMWPGuGcXLYm12XF82dSpU/Xee++5kz+///3v3QSG+Plms/ixJHbKlCn66KOPdM011+jqq6/2boWxSdPXXntNLVu21C9/+Uu1atWKuPmGaxyvWdxMnjxZw4cPdz9T/10ksQgJlsTaGSVbNmoDLlsWCRgbjN95553utUk2wYG/syTWBhNZWVluh2HvEWBsdYudLbGBxYMPPkgS+y/YMnxbjj9w4EDddNNNXiu+6eysoiWwNsFhl7F8//vf926BsST2rbfeUrt27XTddde510ACpvEz1SbUb7zxRq/1+LE7MUKKLUdgOSQa2RycHQ9cb/PV7P0hbvBFxI0/9hlTW1vLMmJ8zjbMs2OCc0D/O3tvGK/hi+yYsAmgYPY7JLEAAAAAgJBBEgsAAAAACBkksQAAAACAkEESCwAAAAAIGSSxAAAAAICQQRILAAAAAAgZJLEAAAAAgJBBEgsAAAAACBkksQAAAACAkEESCwAAAAAIGSSxAAAAAICQQRILAAAAAAgZJLEAAAAAgJBBEgsAAAAACBkksQAAAACAkEESC3zN1e6ZpxljHtcjYxdpR0m11+opOag9nz6nx554V1PWH3Gbivcv1sfPPKgnx6/VlqMNbhvw7yvX3iXv67lb79JDryzUjqIqr71RpRqOztcHz9yue0fP1YKDXvP/ocqCTZr3ykN6/LV5WrK/zmsFQsPR1VP07j236dYHn9P7G+pUWOvd4KpRZdUaffr0A7r9tlv1xIQlWlfm3XQ8irdqx6QX9cCjEzQru0gNBcs158Wn9dBri7StuljV2ybptYee1+gZG3XI+5F/T6Xqs+dp/NOP69n3l2hjhdcMnBBlys+aoTf/drv+cusLmrD+gAq9Wz53dLkWv3OPbrvtPt3/8nxt/6c+zr/qkh1aNPYRPT5mlpYerlbp3vma9PTDeuqjTdqZ793pq9RVqnDFO3rz0T/qlht/q1//4hf6RePXb36n219frM++9AtkasPM1/X4n2/WH677hX71y8b7X6vf/ul5vTAvx7vffxeSWOBrrmbXbE176RE94CQO24r/MYnN0p6pz+jhR97W5LXHPqSK9y3S5Cfv06Pvr9WmY3ktEAT1qtg+Wx8/crfuevxjLS8u15fSwtoi5S99VU/fdr+emrpGu//hUP2/UJm/UXNG369HxszW4v31XisQGo58NkkTH35QD93/jO6fvEs5xV84husKVL7hfT175191/4MP6bHxi7X230xit334nO55aJxmHnJGx7lzNfmBO3Xrk9O1vqpIVVsn6tX7ntVz0zfoeOenqjNXaemM6Zr+WZZKG8pVf3iaxt55m+55ebZWlnt3Ak6IYuVnztEb996vhx+6Vc/PXK9N/3DMFa8ar3ecY/7BB+/WPS/O07aiSu+WwFUXb9PCVx7QIy/N0JLDVSrZ8anevPMv+tsbq7X5qHenr1Jb4fSnr2v0I0/qWSe2t2RmKrPxa8U4vfPk7bp99CKtdh7r2KfCPq36+Bk9+cgLenNBpnbsa7z/Gi2aOlqP3TdGH32Wp6KvQb8cTCSxwNdcWGSsYhOSlJwQo8jwMK/VEx6hiLhEJSXFKzYqwmuKUWxispLiouQ1AUGQqB4nD9OFZ2covmyfth+pUf4XTvTXF+Zo49wNyokaqdPPH67TOns3/B9KTEhQgsVCfIyiiQWEmohoteoixTZLUebieTqUX+wNWB2luSpdvlr7nWNbilIL5/M++h+6h4A4sRKfmKDkxFjFOP1MTWIP9b/gYl1yVh+1DQ9XeHiM4pITlRgbddwDx9pVr+q5v/xRf3xppXLDEhTZYoBO+daluuiUXuoQ7d0JOCGcziosTanJ7dU5rlj7du7T2q1fXNpQp23rDuiQTfxHtVSqEweRYccfUIkJ8UpIsr4nWhF14YrN6KthF1+qi4d3UOtE705fyXm9kTHOSx6mU3/yiN6fMUMzGr/eeVg3d9+m1WNu0/0f5epQtX0qRCmivk4t2p+pKx+YoY+mN97/A425ZZDar3tZt439TDtz/7smc0liga+VetVVV6isuFQVNfXugCXM+SANcwcRzvdjd/oCpy3MbnO+Gm907u/+97+8PxCA+lrVVJSouKxS1bUNiuw5QP1P76a0yo1aPj9fh4q9+zlHatHRTVqwOlcacZnOHTFU3ay5oVrlJYUqKixUYVGJyqrqrGs+pr5G1ZXVqiwvV3mZ3V6s0irn+HdvrFNdZcmxnyssUnFptZynP6ahXg21Vap0frairFSlRc7jl5Sr0v3BetVWlqnEabPny84rV63TzUVERijC6e0a6uw5y1VRVamykmL38YucWCurrP3S66qprFC58/ifD3EanPehqkIVFdWqqW9wXoI9TqUqK5zHKi92XuOx5yupqJNz85fUV5c78Vx07PcoKVOl8zj22DV1XxhM1JS5v4c9TlGx87vUfOFB6qqd56pSebnz/OXH7mPPVer8wnX/8FwIZc6x6x4rzme/c7Db0RHe4PyBM+KVnJKs5puWaOWRPDUurql3jqf9B/OU1r+fUuLaK6XWOYa/eDzUOcdnqR133rHpxNY/aqgu847NQpXkFquszklQwxoU5jxQWYvz9N27H3KSzos12ImfyOpa1bv9jNO/HPtp1ZY7nw1FzuutblyT0djWeCyXqrwx5msrVFDovI5y53UVHtGhwjrVtLhYv37kST1w/YUaEe8+gMN5jMrSYzFsMWOfPZ//Xs77UlutKjeGK1TqvPZjMVzmvgbCAZ9rsD6k1Ok7KrzP0zD3szkmNladurRQ7t5d2rp21xeOmX3akxmp+NREdeuTrsgo5/5f/DB34qnMO64L7Zj/vENq5MRvVWPfU6xDueXOcWt9j1RdFqHkXpfp5w89q0d+OUz9M7wfcV5jTdmxfsiNF+vHav6+vunY2C7SeS3Rsqmqz/X+gX78y1/pZ20PadVH72ldri3BiFWEE5sRkdGKjnOS6M8nbTuqe8f+6tOhWPm52U4/cvxLpL+OSGKBr5XD2jr/ad3xg5v17KIcZTstnE3F/5nDG7Tixev0P7e9rU83lDj95AB1HDRKfWPztHHBEh061Lh+8aDydy7T0gPxaj9iiAb0j3WGDAd1aOEj+u1lF+jcc891vi7Uzx98X7PdJVzV0qFJeu6PD+nX//MzXf/r83Thd6/RLRNytM8yx92TNeGvl+h89+fO1/nfvV9jF+4/luBWHlLx7Ef0u5tv00+u+YF+ccG5+s5vHtd7u50E8ehMvXH7NTr/POfnLr5aV988QauPVig8IVbxSTXKXztOz//me/rVn27Sj753lb7tPP5551+h//f7sZrrPG+NPf7eSRp3q/M7/+E1zamsP9ZWukiTH75Bv7j+GU3c5wzE90/Wc3+4Qb/9fz/SDb+70nmN5+nc8y7Shde/rqnr/n6hUn31dk2771f6yfnO7ed+W1d970e66U+/0veufUbvLs889vvkb9Wa53+sH15q93Fe9/k36C8vLdexFWfOQGnTa3r2D7fpyh/8RrfcdJ4uutDuc4G+9ed3NH793wc8CHVZ2vDpY7rtf/6sl1YWKtdpiXWOvprULkrv3kMnxa3WpjW52lVg963XkZxMrdrYoF6DuqlDxzTnWPtyErdr3N9025XHjqnzLrxal/1tmrYcdo9mV/XRPZpz33d1zUXO7c59fvrHF/T61njVhsUoJjJM8fmLNeOpR3TX6HnaXFevuugoHeuKIuWMkVWTu0Tv3HClLrv0L3pm1l436S7LnK/Xf3OZrnDj9jwntr6nn93+gVZUF6luw0t6fvwiLck6qIPz39Jdf35dy9ZO1NvPP6Yn3lqgte41sfYbLNJbf/qJvmsxfJ5zvF9zox6YW6c891Cv0I6Zo/Xor76nX/zxZv3o8st1if1+F3xfv7pzvFY49yAi4Crcp61v3qif/GW03l5in8nRzsFRp4jYGHUYNVQdinJ0cJ0TU+6dncQue4lW5aYromVfjejoJINhDapzktBjtmrthNv0w/OPxcq5512hP7y6QKs+P9ico79gmt688ye60I7bi67Sd3/3rpYdKlFYYpxi4+tVume2Pnjkbj08boO25x37qey14/XED87Tt+xnnHg5/4If6fdPfaqNdmNUpBdv9ccmbtx/N4pRUq9+GtImUeV7NmtnRaVqnXs7+bIaGhosN/5CHOTqwKEtysprrt4Dhyk17b9ryQNJLPC1Eq+0Nv017NxR6t863vkv5yPsHyf8gP+U+OZq2fc0nTO8hzo0j7IGtes0VGd2i1D12tn67OBhuSdjc/dq34rV2hHWR4MHdVLfuDLtWTJWLzwwXiujztKQCy/VpSc3qHDa63r48VlOJ12lhtq92jx/jN6csklbw07TRReco5Fd4tXs4ExNfHKsnl9Yq7aXXqoLL+mnhK3j9PQjY/T6Z04iHVaphn0LNWfC8xq/yenCBjn3Of0kdY7co0UvP6PX5uSqprvzfOf20IiwzVp7pFSHKqMUF1un6oLtWjZumt57ca6y2vXT6c7jD22Rpw0TXtKjo5dob77T9dfs07ZFs/XJ/E3a7yS2bvjVZGnXyjmaMWetdhZVq6Zkh5PEv6/XJqzUqsI+uvTSs3VJ/0rtn/6knnpzrhZZBlJxWJlTn9cLzqAlM+0k5z6nq1+7LM198T1Ne3+5thU4w4767dr83vO659WtKhl0hs53Xs+ohJ1a9t7Dun/SHlVUOC+geIfWz3tRn368VEtKT9P5TgJ7adcSHfj4GT311hQtdcZn/3yODaEnQc07DNLwc0aoT0aMmyjW2hl/tVGrDgN0Wv9abV+1Xjv22nD2oA5l7tRn+b11Us8MdW/lDMNr6xVmIVpdovx5z+ix0XO0sranLnSOqbNOilXRlMf0yGsLtMJO5dbuVtanL+uJN7bpULehOte5T/fEWu1asVm1TsJqKxeiS5yB+9RJGjdzkzKdTqguIlzhDRFKzIhWwaG5zoD9bo3e2lwdh41Q/3bJbkzOHvuYHvssSu1Odo7RSy/WgJQcbfn4NY39NEc5cX00rE97tU1OVnKHfho1sr0yardryYTxmjx/qw46I/DKvLWa/dijenVZlaIGWAx3UbdDn+iVh+/X2M+OqEhRqszeoPlvTdO4N1eqoO9wnXPptzQgeo8Wvzna+X3WKKeENBaOmCSl9ThFZ4/oqx6t7DxmnbsSpyEqXrH9z9awNkWq3/OZFh5wbqmqUumqBdqb0FrJvYepb1S1c6yH6VgOe1Trxj2lF55doD1tLtU533KOy+5HteG10Xr0laXab49cn6kVr76g16dnqrSzc/v5/XRG5BZtzCnWofIoxcfVO93BBi2dNF4Tlx5QtoXwjg/1wZiX9cquVhp29sVuH9KlZr2WjH9X7y4tVWW1k3ZHfcVaurRmSm7fXClVh5R5sFIlThIbm5iiyiOrNO3+7+uHV31f3/++fV2t697IVOW37teDP+un7s3/u86KkMQCXyupatvvYl39hx/rot4pSnNaamrqVdfQoDC7/pUFwvhPSu2o7hf8Ur//4eka3NGG1U4a266zRpzWRRlFO7UpK1e20WLF3h1avSJLNd1O18ndWqlZxXqt/Hi+Ju47Sb949iG9eN+dunP0S7pxeL2OTnhT07bVqKjeGWQklym5n5O8Xf+E7vzjjfrxyBSFrXhXr0zfrcN9/6Cn7rxT9931hJ76dXs1rPxUYyZv0JGIaDVEJyqtIV5dL/6pfvXUnfrTry7RqXVLNPn9Ncrr+n397nHn+e66R/ddf6q6JsaotqJG9c6gJDwySjHJSUrv9i399C/36R7n8R/8/Xd1SvM9Wjp1o7ILnHQwPlHxKWlqnpqg2M+X6DtJRVKamqUlKi4y3InFWCUkxiu1+4W68Nf36847H9Zdj/1Ul6Xv0taVm7W6yMkljmzQkvcna13SObr81qed+ziv5y8/1be6pSspNU5x8Skq2bdYs2fN0/ouf9LdzzymB5zX8/RrP9a3M/Zqystztb64TA3OwCQxNlJJA87Qt254Qnff4zzfPdfooqR92r1qkdY6eT3zXP8NnIRw8GX64e9/pPO7xivJaal2kseaqnA1S++owacPUPiRPTqSXeZkezu0b8smbU12BujNE9U+qkY1zog70hmrVztxueq9Z7U84gJddP9bus85ph554T49f26RlkybrWmby1We4wyop32gJQnf0U/++rgedO7z199+Rxe2L1OYLZ13wqAhIk7xqc4xnxKnaKffsctTIqKrdWjZR3r77Xc05UBXnXX9A3r00Wv0rYEZzmAyXIkdT9cPH3hVr4y2mLhLt//8ZLUu2KmVy8tU1O58XX7xMA1u11qth1+ma39yvnq1TldybKJSUpKVElGp/G0z9PbzK1R00v/TdU5c3/ngU7r316er7YaXNG7qOm13fvWkhFjFJCY7/eQVuu7uh3SXE1f3/Pps9Y7YokVTtqiwlCQWjvgMtT3zZ7r+mvN1ei87HWDL7etUHxat2sTBGjEkVS2jj2jrzjpVlR7WpoVrVRqXodY9eim+ptb5zLcj2jmWipZrxoTVWlZ/kf729p166B7nuHz7UV3dfIe2fzBZCw/XqShrqSaPW6sjbS/Xbx+zvuc+PfT7s9QrLVZ15db3OMmWkzwnOolnWmK0oi3zCotSq4GX69pn39GTD9/t9g83XNJBkQf2aO2aMlVVNSgy8ivGe0lJikqPU2J9oQpzalXuxGiYm58648WaKlU7iXmV+5WgmKhmigwvU+befaot+++a8iSJBb7mIuKcAXNUpOoqy1Rq13l47S73+lfnw6uh3vmgZCiL/4C0dupw6inO4LlYR7bn6mhlhbL3rtfyvdFqf8oo9WiTKO1bqb07CpTXzElKt0/X3DlzNGfufu2qq1Vi6UYtmZOvvPwG59hNV8dObdXDvYDWFGjVZzuUGd9a/U8eoA5uW7L6nzlUI1tUK2fvVu10OukqxSg8rK96d09W+1jnLvX7lLtuhdblt1SHk7qpVwv7OScNGPR9Xd63mTrFV7nXzNZX1yiieXO1Ou8iDXIGw6Y6LEXNW0YpMSlKETZmaDKMGtxrD2tqUtRl2AANdS/mcwY9cSlKjU9TRnSMEmIbVJC7Wcu2VCut71D1aH3suWITBumi81opPT3CeYxS7dm6TxsOlio1o1aZH8/VHOd9mrv1qCoUqepNCzX3aKkq68PVUNNFrXr31znD7VGcJ49Kcp4uXRlR3oAI/5XscKyvqVZk8xS1GTZI3cqPKj/3oHZv3aVtG/YqvFsvtUxIdgfd9c4xExXZoJLSbVq6oVRRyZGq2HXsmJozbbXyYxNUtWutdu7bpi37s7Rsb7maDxmqk2Ls9K2U2HuALrxiiFKiI53n/MfrS50+xulnomIPa/P4sXr52TXKHvAL/fbqjsrwxtlhnYbqrEuv0Lfb7tPSec5zznld4+as1e66OMXGRSjSOq6KalXXOn1YdYVKGirVYBd122YOEdGKzM9R4aa12lTVWb2HdVRHd/ObVoo7+Wyd2a5BxTv2KSvPGarX1yqqbVu1O/cCDfSO/broJLVoHa34xCjrEoF/4diHe319mBpqm2tQ/55qm1avrB2bdTRvreatrlRkYoa6dk1RrZt1Ohlhfb2qt6/UnsNhqkwLV8Vndlw7X/PyVRRTIh3doWXzD6hw9TJtKnD6lQE91Ke1PVesagZcpcv6tVTnRCeR/OKgzek8nENY6n6uLr3sPJ0Zv1rz5trjvqxJK/focHiC4mLtWlj3rv87J0FtKKtVZVi84pPDFe18AlSXFSk2Y6gu/tskjZs8SZMm2ddEvfmHAWq/8A795vb3NW9/0bFLZP5L0P0BX3PRLdLVNjFWlXmHle18UH150/cw1dc5g4KwcEU6X8CJ10rJ3UdqVKdqHd6wVVuXLNDe7du0vb6bhp7aTW1SnbscKVZ54U7lbp6gp2++Tr/+9a+dr5v1zIwDyk5pr4iqPEXUOYNYmzq2nrqxs64/rJyjJaqLSFezjPTGRqencjp1d3TqJJDHGj3HNsBRZZlqsnOVX52q5NZJalwxFRHRWq1aRDlJZb1dDvV3znM2DhCObd5hG6R5o9/G29xNNY4NfewfNoj/8vjYez3uC6h3H8f9sbBIRYQ7cVp1WLlFYUpu1kbJyXYfh50NdgZH9pNhYbkqrqhU/p5s7ZzygP72e3uPfq1f/e5Vvbc+X0kdIlVXFO4MTNyn/wI7TeY8k/Mg7qZvXiv+S9nne3yKotp1UpfaLcrcPkevzdimnQfjNOT0EUpNT1FNjQ1LI5wYsY3R8nUkv1p7F7+m1+74zbHYu+Eu3TzxoAWEMpKPaH/xEeUXxyoto40zYLYr6RzJSYppmaE052CLshg41uo5dqyroVgRSc3UrLJOOdPf0OT9+So9dgfVZi/XZy9er6v/58f66S/sWH5Br326T9VtoxQR5cSP/Xjj47ox9oXncF5XeFmJqg7nq7ChudJax8s+RlxOHEZYomvHvH01ch/j2D/dEHZe4+cxDPwvGuxgcQ6cVp07K62+Wtmz3teK1Ys1L7e3OvXvqEG9q1VrSaZzPDU4n9eluYWqLtqqrGVjdc+1xz6jf33tHXpzXbUKm7dWdMF+NRzKVn5VqhJapSjdC6dwp+9p2SJGifFO/H7x5KdzPIdF1qs261N98vAvdfkPfq5f/Moe8y1NtVr/HaLdvs7i5SsdyVH+7qMqjG6jdp1ilWx90JfOcDQKV7uThuvqM9spYvsqLcjN/ef6uCGMUS/wdWc7qzp9c50zUPnipqWmurxSB5zBe3lKupM82OJjd4j7DwMQIJjClJjWV2cMb62ogxu04L33NXdLrsraD9dpvZPUwsaRyQlKSOuh9H5X6Q9Pjdarr76qV8eM0RvvTNAHbz6hh67upNaJ9cd2K3YGFPWNnXyY0/FnJDkJbq7ychqL6dnB7wzObfDhdO5/77Ts57yBcEy8Ilu3ULPoAhUfKlGu15nX1R7UoSPVKqtwBsKNlwLZ4Nfp7Y8NfM3fB8Ofs/s432x3yMZhsTsI9/59jD2OJa+N/3nsZxqcNKK+PlyxMa3UIrVBxXkHVdy4i7MlGU5SYs/X0NBCyXGxat61jbpfdrvuf9Z5j9z36U29PW6C3h/zV/20X4oS6itUab+n80Sfj1Hsuf7p9eC/U7Vz7Kc7h/gpGtm/SqUb39Bbb23X/rCTdOpZSWrmfOxXu7Uf7Zh2jnM1U8vm0epy2s/18wdfOXZMjX1dY97+QJMnP6Gbzh6mfmHJSk2sUH7OIVVUuiN2qahIldlOcuscZzVfijNjA+QGVVd00Ek/e1h3PvtjnRs5RaMfm6YN+yyBrte+lTP15kdbVDXwRv35cTuWH9OfrzlVPWqd2y1O7GG8GHHj+IuTQk5M1Cc4SXTrZkoLy1XBofK/D7QbvNi3+zcmqfY4X4xhLx6AJjnHYoPtcN9jiLp1T1H8gvF6+4NlWp1xkgZ366LuYbZJkt2twTneGpTUIlUxqb3VbtQvdPeYxs/oV/XmuIn66MU/6w+Xt1NSh3TFRxSo7HCRcr1wqq87qOwjlSopO7Yz/jHHJkajowu1Z/YUvTsrV6nn3aXHR9vj3qtrz+2nthWVbqw0divGjvsvx6OTw27dqWUb90rNO6iLlcVyfqLOIsoJBEtma7/4AFGxSnLuE1VX7fQl/7CaL8T94/sC4OumRVdl9Hc+SHcs1ntjVivH3cXRlKl418eauDRHEV1GqWvX5k6b88lFZ44TLDwxQwPOHqwuWqmpk6fq7fXRajHkbA1Oi3Z3SFTXgerQI1XNc/NU0/k8nX7GGTrjjAFqVzBDk96ZrMVZMSpvcDrV8H84WMNSNHhYT3WsyNam1RvcTTOsSP2G+Z9pWW60WnXuo+7OAR5lA1v3Nk9EKyX0G65BqYe1dvpCLXe3nGxQRO5iLdleoqySqKbrxNpLsa/0ZkpoVqzqI7u0ZZvXSe7drsydO5XrZMINzoDi88H3v1SrmtowpaX308g+MSrYvFLbDx0L2vKS1ZoyPVtHnSw7LDxeXXp31oA2CSrIllpefLrzHjnv04gENSyboLffX6VdDVWKSIjUP75N+GY49md3ksqaSMXFtNWIM3oq7uA6HbBJo56n69yMCCVE1MgtE+kdd0mJvTVqQJKqCysV3eHUY8fU6aeqS/ZUffT+NM3fLnXr00undo/U4WUTNWWXc6zbjx/O1oYlK1VcU6OGyH8MFueVOP+rq01WUus+uuDqH+gnv+yr6Ckv6rWpe7XXiZK6gsPa5CS04a2H6bLLLd5T1bZ2r7bkhDuvLFKRFki1te5ZrojoBCUqQWHO6D7MJmicwXVts5ZK7TdY/WL3aetn+7SvxJ43W+Wr5mhuVrhSenZWu+bxzs8fmwQCAtN40FgS26Cq2O7q73z+dmzYrQWL9yq+z6nq3iVZUZXV7uSITZJYxhnVc5i6tGxQbF6NIgbacW3x1F6RW8dr/Lsztaqqg6L6ne5uELh51gItWnsse4wqWKKl2wu1v9Dpe7yzs43Cw6tUfPCwthyMUFqPs3T5uc5jnlqv8NKD2nvUVvLYyiO7p036OLFj1427P+kpXKA5417VW/uT1fWiKzUwNcFprFKt0y+GhUcqJlFK+UJ2V7ZnvSbN362iNn01PLXZ31c5/BcgiQW+VgqUtXGK3nlsrKZuzpe7E3tSfw387v/oV1fGa+/Td+kv1/9Rd9xxh+746/X607OTtK379frZ1WdpcAe7tqlBdTUVKi3IU0HJP1yLAQSqcJ+2T3tRj781X6v2NZbTcUQmKunkMzUwLUdHnET1QGEL9TtrkDJivC4lebCGXXaWruiyXq/ecIt++WfneL31h7rmT8/rpUWFqrZr7hoqVVqYrwKri/qFWeNmo67RT8/vpjZbntDvnOP8L7ffqN+9lKXIEZfol98eoBb1NU6vXKi8vEIVVVR7yWycEjqerR/ceK46H/5Eb9x8gxMjt+nWe2ZrY1m+SqJqVFXdoPrqMpUUOM9ZavVe3R902px4KcxTXlGZamzNceIQDRjaV93zPtZrt9ym3916h+57f6UW769XXHGpquyMaK3FmPM4JRWqahwbOb9PmfM4Bc7jOHdTdEZ/nfY/l2tw2WxNut9ez/26++np2uTEaK3VIKwsVVKnU3XeBedq8P5Hdedvb9QtFtc//JF+//Dbmp5drco6J2muLXOeq0D5xRXHkg1TZ6/ZeX7nub743iGU5Wrfqol66/HXNX2ncww5LRFVJSopKlJhSaXC48KVesoo2SV34WExyjhluNo0RCrcOY6K3DgqU1mFc9yldNOQH/5OozRL0277gf7kHFO3Xv8T/b9fPqH3N2Uqr75WEe0H6+zvXKPvJS3UuEdv0nXOfW57+n29va1OtQUVTmLpDPSdY6y8sMCJC+e4szNX1aUqzs9T9sEDznC5jYZc8hP9qM06TXnqcb2w8IASThqic/rWafdHt+uW396qO+56V+OX5ism7LAyD2Spwi5K79ZBrVPzncH+K3r08Te0MCtbh6usRnKxiupi1azXhfrRDSOVuvYNPXuDEwt//J3++tIiZQ/6ja6+ZJB6JDSopLjYeR0FKiyr/bxOcp3V53RiL9/p8760dBPfXGU5ypr7ip56Y5rmb7W+K0L1NU5c5ReqxOk3yhSttt3ba0CvaBUfbaaThndSO9tLobRU5UX5yi8oUUWd058lD9cFVw3VKVHTdN8P79Atf3WOyxuv0Y/veV/j1zp9RnW0YtqeqStvuFC9S+fp3Vuud/ueP90+XWucxymLcT7Hre+pKXfHZXaMllcnqe1J/TWi7WEtHvM7/e6m23THbdO1xEl6o+qzdSAzR7V2KrW6XFW5a7Tioyf1Z+sbGr+cMeCYrQnq8avb9fsf9lXnBMuSrZZ7rQ7vXapPn75DN9/WeP8/6fq/vKP3D/XSd39zuc7p0EzHdmj47xBxl8P7N/C1dfToUa1evdq99uecc85RQoLNPP03KlDm+jmaNn6LKvqPVM/OyUpxPnKSW/bVkDPSFbF5vdbv3qFtu3Zp9548FaWO0GW3PKXfX5Ci1l75r+rSI8rLrVVC/3N05pAu6pDy1eeNQl12drYWLlyoli1b6uyzz/ZaYYqcAfC6devc78OGDVPr1u6uE/4V7NH2BR/q3W3J6tajh3q1PrZDsQ0IFJ+s8IJiJwlMVNfzvq2rrjxNvVKsiqSJU7P23dSrQ512LJyjzTt2atdeJwXr8wP95Ka/6vdnxCiuIUe7ncQwudcInXr6AHV1e1bnWE3uoj7d4pWQv0az52zV3t0Fauh8hX7755/pJyNbKMwZXFfnHdGeytbqddYpOqV3G3eWOjyquTqc3EUtig9q35a1WruzVLm1PXXKBa3Ve9g5OqV/T3UMP6qcggilDT5PZ5/UVi2dj5Ha4iM6WlytmB5n6qIR3dQyOUNpCSlKqNivrIM7tX/PLuX0PFU9uwzRWV26qc/ZQ9UttlA52Q1K7TtKp4zqo04xzmi6vkAHd5UqtutpGjZqgPpkJCq550nqUL5D+zdv0orttilNC2ewVKJt5d01cuQwjerVQxndOqtn5BatWLhJm7ft0q7SOHW46Dr9/p6f65JmsQor3KfdR2OVMmCEzj2jj5M+OKpynddWq/iuQ3XqmYPVPd595wKSk5OjVatWuf+2WqKxsf9NQ5vg2LlzpzZv3qyMjAyNGjVK4V++ODnIcrVn5WzNmLRTdSefrj7t4hSbt1dHlK42A8/RGX2TFJUSq8oj5UrudLrOufoCDba1+5U52p/VoBQnjk5xjjvbjTuu0zD1itunw1vXa+GGndp7qEjqeJWuf+omXTO4pWKUrKROfTUg8aD2bt6iLZucY9x2Zh10oYZ27a1TLhqsXvFlOpxVr7Duw3Xe2T3UpixXe/NT1H7UcJ06uJMyIpqrVXyRMjNLFN1jsM49p5/6xpZob2amsg7s1k6dpkEnn6xL+8UorI2T4J7cUc07OwFXWqjMrBwV5cao/ciOiqpLVbseQzVsaB91S22lziPtLNc6bVy3Spv2l6qs/Rn6/k0P6lejEpUWVqmSo4dUUJ2sNsPP01n905VqOzIXHNSRikgnHs/VRcM6KtVJ+E+k6upqbd++3T02+vfvr379+nm3wBw4cEDr169XUlKShgwZosREd5eu/ywnic1cMk5vrotQ8479NLhTjKpKc5V7JE4dTz9DA3umq0VclaJrY5SXeoYu/8kIDW8WryinP8guchLIDsN1zpl91TExVa36dleHxEJtnOf0Zbt2a9fBcCWdfqP+8Idf65r+4YqKSFKrgd3Uqsp5zk1rtGZnobIre2rUuS3Ve+RZGtmvr7pF5yonr0FJA87VGSd1c/qTBGVEljp94D7t35epXcmX6uLhXTS8R6piOg/X+QOaK6osW9lllaqsKNSB7U4funu3dttXQaK6ffev+sttP9BFLd3e2H5hFR6pUFFxlWqKt2mfc79dzmvdvXu/8mo7a/CVv9Vdvz9THRP+b89dWtxs3bpVbdq00YgRI7zW4xfWYOfVga+5LVu26KWXXlJZWZkeeOABd1Dx36ledTXVqq5yBg/OoDI6MvwLyyXqVVtZocqa+s8XxoRFRCsmLkZfLCfWUF+rWtutMjxKkd71tP+t7OPLJjfuvfdeDRgwwP2Ov9u/f79ee+01d1Bx/fXXa/Dgwd4tPtXXOceS04nWRyomOtrprL98MFkR9hqbMQ6PVFR05L9Y2lOjSqcTPnbWM0xhUTGKjXGOS3sYK+VRXaf6sAhFWmH3Lz10vXuGtNyJgwb7uUhnYB4X5XXWDc6P1qi61nnESNuR9e/XrZoGe71VNaptcH7OiYHoKOf+zuuLdL5sYWNtjfOcTrv9nLtfjMVLba3qnPQ72nkd7jIuW67sPE6V8/rsbE9YdIzzmsMUaYHn/J4Rzr1r/+m116nGed5629jJeV3hdVUqK8pzhhYJSohPUGyU85h7ZmnSE3/RTfuu0t1/vVa/PN3dRtnJpJ3ftdI7sxQWrsjoWMVGewW16mvcMlv2XJ+/x/be2e/hvJJ/fu/82bBhg0aPHu3++8EHH1RKypcWrMHxySefaNy4cW6ScvPNNyvi8wurT4S/f/aHx8Y5h5nzR61zjuM6JwbCo4/9t7vSpto5TsIVEdW4m/b/Ekf11aqqdB7v2EGl8Agn9uIbY8jjHKOVlc7xZdf/RTg/a19Oc8QXjvFa97hz+pG6WlVb3+PGXMSx47DOeY6qWqctxvl8cI5X5zkrneesdZ6zwXk+678iw5zX19AYWw3uZ0aVE7x23XiUbSpVbx8OzuN/4bXXVTn9nN3Hjf0oxcQ29nF2vZ/Fq/M6IuwSASf2nXar/2nLjC2uo53X1njp7IlSWlqqyZMna/z48frhD3/o1uPE3y1evFhvvvmmm6hce+21atWqlXfLf5B9hlc7fUGdExdO3xXjxI991tvnZphz7ES4YyvnOHI++6vrrDyVcwzaJ67bHzjHvfNfUf8QTxXltmTX/sP5WfuMdn/m7xpqLZ6c49/pe6yETnS0c2en34mwL7fvOTYuc+PHiYUGJxbcvsrWL0fGKdbpYMKsAoX9rPP67LXUOH2dHe/udeGNrI+IiVfcl+rIOvex5frOc9i+C42rFFxOnxQV47zer6o7+x9g4zWLmw8//NCd3Ljxxhu9W47fP485APwfssFJrOIS450PtC8msMb54IpNUGJSkjvDaV+J8V9OYI1dE2EfWDFR/90JLP4Dwp0BQIxzzNlEyb84mMIjncFBrHOs/csE1kQpNqHxeE1UYqyXwBq3Y7XB7xcGCp+zQULjse783OcJrLGBrT2vDey/nMCaMDd+vJ9LcAbSzmAjxhl42+Yax2LDec6oYwmse39rc5NGL4E91ugM5OMV7z6OE2cx0c7tzmt3E3Dn+f/la3cGPRZ3TpuNPyoz12v6Az/Wjc/P09Kjzv2japWfv1wfzyhQVFIHtWhxbCM2lzOAaXyupMQExTUmsMYGPd5zff4e2/M7ifW/fu8Qmv7+2W8Dbvuz2mDb/s7HElgT5tzHjmkvgXWb/tWx6HAS35j4xGPHlBMLCf+YwBpLbBOO3ScxPk5xzvEd7XxFWBboPG6k87gWF+7RaEmjk0zGNCawxiZR452+qvF4dZ4z1nlON27jndvsZ53f6e+x5STTNiEVn6CEREvUbaBvv8+XX3tETJwSvNftfvZ8fpsl4/Ya7XUcS2DdVnufvD7vRCewCBH2Ge4kegnOGMni6VhTpHvsuBOYbotzDFlfEuMd426Tc9w7x6R73H/xWHKO7WP9in05x+8/JLDGnWz1+p6kRIvJY32P9QdfHJc1xoJ7fy/+kuKsj3D6F/sZ9zh2bnePdacfarxP45f1Ef+UkDq/r/0ucX/vt/5+fydB/j9OYE+Uzz+LAABAcEQ1S1SXjnXa+saf9Mtvn6tzzz1Pl/5mvKanXam//PR0jej4D7t9AAAA30hiAQAIsqjULhr8w7t0+/VX6opTu6lbt4Eaec7P9ce7b9DPLuqsVvHeHQEAQMBIYgEACLpYhbU4XVfddL+eem60Ro9+Qc89/ifdelkXNW7iDAAAjg9dKQAAAAAgZJDEAgAAAABCBkksAAAAACBkkMQCAAAAAEIGSSwAAAAAIGSQxAIAAAAAQgZJLAAAAAAgZJDEAgAAAABCBkksAAAAACBkkMQCAAAAAEIGSSwAAAAAIGSQxAIAAAAAQgZJLAAAAAAgZJDEAgAAAABCBkksQkZYWJhiY2PVvHlzrwXfdHZMpKWlKSoqSg0NDV4r/lFMTIz7PgGN7Hiwz1P87+wzJSIiQgkJCe53wCQmJiopKck9Juh3/pm9J+Hh4YqPj2e8hs/ZeC05OTmo47Uw54GIQHztbdmyRU888YS2b9+un//859/YAXljuNrg0zqJ6upq1dXVue32AfFNY7/3jh079N577+miiy7SAw884N0Cs3//fr3wwgtavny5LrnkEvXo0cO75Zunvr7eTeajo6NVVVWl2trab2zcmN27d2vatGnq0KGDnnzySXdwgS+bMmWKRo8e7b43V1555Tc2kW2Mk7i4OPffFj8WT9/U2KmoqNCSJUu0Zs0a3XDDDbr66qu9W2AWL16sZ599VjU1Nbr00kvVrFkz75ZvFosVY+O1yMhIlZeXf6Pjxt4Pi5vVq1e745GbbrrJu+X4kcQiJOzdu9cdjFuyYrM431T24WdfxcXF7iDczhDY+2Ft39RQtt/bkpMbb7xRv/3tb71WmJycHI0dO1ZvvPGGKisrv7Gdp/3eNulTVlbmftlZFEtmiZsYXXXVVbrtttvcBAVftnDhQj311FNauXKlOwj9prLYscF3YWGh+2+LH/tuvqnxY5PH3bp101//+ledc845XivMhg0b3LiZM2eO+xn7Te93LG7shIOdfGmcCPumxo19jrRv317XXnutrrnmGq/1+JHEIiTYADwzM1MHDx50Pwy+qYetfQDaYOr555/Xrl279JOf/EQ9e/Z026xT/SayTsKWLXXu3Flt2rTxWmFsJtxiJisry50F/qbGjQ0m7GzaBx98oPfff1+//vWvNXz4cDeevqlxY++JJa7t2rVTx44dP09K8Hc2+Dxw4ICOHj3qThp+U9lkh03+3HHHHW4cXXfddUpNTXU/T76JnykWO/bZYUlJly5d3PcCf2fHisXN4cOH3fHaN5UdIzY2sRVi69ev10MPPaTWrVt/vgrom8jek5SUFHcFUMuWLb3W40cSC4Sgu+66S2vXrtU999yjgQMHeq0Avsr48eP14IMP6vHHH9fZZ5/ttQLw4/LLL1d6erqefvppdxUQgKbdcsstmjdvnmbOnMk1wkHG1CsQgmwm2JYRf1PPIgHHw5Yy2TJi4gYIjJ09shU/dsb+m3x2DQiUxYyN12xlFIIr4i47pQMgpNjS0FatWql///7u8i5LagF8Nbsswc4gDR061D2jBMAfW7Rny0Rtc7i+fft+o/emAAJhcWPLiEeMGOEuzUfwsJwYCEGNYUvyCgTGYoe4AQJHvwMEjrg5cUhiAQAAAAAhg2tiAQAAAAAhgyQWCEELFixwy4VkZ2d/vlQFwFfbtGmTWzd3z549XgsAP2wztAkTJuiTTz5RRUWF1wqgKbNmzXL7nZKSEq8FwUISC4Qg+1B866233PqfAPxZt26dnn32We3YscNrAeCHJbHW53z44YfuxoIA/Pn000/d2v7FxcVeC4KFJBYIQVbuwMocWMkQAP7YQLyqqsr9zgoGIDDW59gXsQP4Z6V1rN8hboKPJBYIQbGxsYqPj1dERITXAqApViM2MTHRrXcJIDDW58TFxbHLKhAAixnrd6xeLIKLOrFACLKZvfbt27t1YlNSUrxWAF/FzsCmpaVpyJAh1IkFAmQrgHr37u1+UScW8MfGax06dHDrk1MnNrgosQOEINsgwD4Yk5KSGEwAPtmGNFZ43uKGwQTgnw0VCwsL3bOwycnJnFUCfCoqKnKX4Tdv3py4CTKSWAAAAABAyGBKAAhBjRsFsLET4J8th6ysrHSXFQMIjPU5bOwEBMZixvod4ib4SGKBELRx40YtXLhQ+fn5XguApuzfv18zZsxw6ysD8M8mTBctWqQVK1a4g3IA/qxZs8btd6ivHHwksUAImjNnjt577z0dPHiQ2T3Apw0bNujFF1/Url27iBsgALZ6wfqcSZMmUScWCIAlsC+99BJ1Yk8AklggBB09elSZmZnM7AEBsA029uzZo9LSUq8FgB826WN9zqFDh1iODwQgJydHe/fudS8DQ3CRxAIhyOrDWq1L6vUB/tnOkLabNztEAoGzPocay0BgGK+dOPTkQAgaNGiQzjrrLGpdAgHo3LmzLrnkErVp04YBBRAAm/ixPmfUqFGKjY31WgE0xeqSX3zxxYqPj/daECyU2DlODXWVKisoVGVEkuKTEhQf8OSk87ZXFaugsETltbGKTklVi8QvPkiDaqtLVHSkWJVhMYpvnqrk2ChFeLf606D6ujIV55aoOsr5+eQINZTkK68kQomt0pQSXqniwkpVRSSoWVqcAv0VqktyVVIVpvCEZkqLrZfK83SwoF4RiSnKSI37P50hqasqVWlRqWrjmikxIVoxQXsxVSo6VKT65BRFh5erpqxaSmup1P/w5LTtsmqhazN8nFUC/LFlkPZls+LEDRAYWw5pkz/W7zAJBPhj4zXbGM1WARE3wRVxl8P7NwJQcXSJxt96o17dmKaIHn3UO8W7wa/6Smnlc7rv9lt061OrtVFddfHQNor8fFx1WDuXvKBbr7xVj721XmWDB6hXx3Qlebf6U6WyIxP05C9u1djN7dSmZ4yKPnlKdz21SfUje6t/0UQ9decbemVTrIaf3V1p3k/5te2N3+vhN+ZpZfwFOq9TsbTsOd3w4Hytq22lUYPaKMa7339enbLXvqtX/3qPPioZorZdW6ptUCbAilWYNUVP/3qctjTrrPrCjzX7pVc1K+Iy9esQoYTAZhj+LTYAZyABBIa4AY5f46Qp8QP4R79z4jAVfZzqqvN1cMtqbdqdp4LjOZfdUCsV7tOOg9u0bfMirf90sVY7bZ9f9p23XZkrZmrc9s3avG27cvJKFPgWPrGKCTuqfes/07qtB7W/Jl0dT79Kv7r+Eo1skajwI7u0fcsWrduVexyPLVXn7NDO7Tu0N79OikqWel2mn/7qKl01qqPzzP+3KosOad+G1dqSWariIF1LX3Fgi5a/9pxWJvdQUqsMde3USamJVVr7xCtaerRQZd79AAAAAJw4X+szsUVbZ+vj557TSxM/1bRpc7VwdYmU3kpdWsSpInejlo0fpyVHmym6RXOlx5Qqb/8STXtznnZFtlJamyQlHF6vxe88oWffmqqp02Zq3g4punkbdWoe5Tx6vZQ5S+PeHKvX352sZavXaMf+PM1bmaOYjFS1SXbSsPJM7Z3+vJ54aYImfzJNMxcs167SZDXv1UYJzm1bps9WfrM2KsvN1LL339CUReu1TV3VzXnuY8uLq1STNVuvPTVab380VdPmbVZWfZrad2uhhHAn8du7UB9vSdD+7EoN7lCl6qFXql+zcMWHSyVrp2j53E+0pGGo0opbaNj3TtNJvdqqmQpVvfp9Pfb865oweZpmLcpWcXwr9WmfpGNzPA3KXjZBHzzv/F7z5uqTrQdUuGKvIvt+WyPO7Kb2Zfu062C9kru0VEbxGs1elKMj6UP1w2/3dR67XNs+eFrPjVunzPi+GtiuXmXLx+jFl97R+5M+1fS5C7T+YJii27WW1ryl996fpHk7C5Vb2qCwpDbqEp2nrCOVqo5PV49WiU6mf0gr33hGY9/+SB86f7/lWfWK6tBNHeysaMlKzfpwjebMmqW1697Rm+/M1OyFzvvb4CSGLVPVPNq5T1228zTP6dW3JmjCJzM1Z/1h5ab2Vb/m4Qo7NE9TZu7U3KWrdHjlGL389nTNXJituvYd1Ll5gvOn+0xrFmxUSb+rdeoo528el6XD897UA8++rY+dv+X0eUu0qShZ8R3aqHVEseq3zdCbM9Zr0cxPtHLaOL07dZ4Wrz6gyjbd1aJZjJOUZ2vPwk805o096vybW3S185gdmrVVRkSpDk1/XysyRqiX8760jHP/CCec1R3bvHmzkpOd34HrLABfdu/e7da6TEpKcmMHgD+2HNJKu1lZt1atWrHBE+DTZ599ptWrV6t9+/bukmIEz9c2ic3bOFGvPvm4XnxvowpqC5RzZKVmjv9MByO7aPApPRWZ9Yne/vNfNKF0lDqf3Ft9U4/qwKo39Oh172p717M0rFedsj96RY+9OEGrC8tVkLNLi2dsUmFEa510RjfFVa7X1qf/rD+9tk7rCktUs3uhZk5cqHcWV6rPecM0okWutr3zvB5+coymHK5S6ZEj2jn/I83dXqHIwadoSOJRbZs6VSv37Nf27BLlZG3Q7jWzNXV9jNr07KfeHWJVme0k3889oYfH79P+4qM6tHiWFm90Eq0BQzSgRYxishbog0XxqqwvUd8eedpQ9S2d2ztZabHl2jhlipat3KmkEcNVtLtOXc4bqTP6pKp6lZPQPfOMnliSrfzCbG2esUBL91WqxcknqWdShEp3T9QLf7tfr07eobwY53Xt3qVDOw+rfuAPdNHIaBV+eJ9ueXi74i8boZGx2zXn073KbjNC3z0vXYWLxmjM6E/1SVaM2vVsr56Hpui5+x7V6xsPKy+/QJmr5mrBih063HKwehYt1pply/RZVpWqkrqpc5cOGnrwJd348CKtTxikiwZFauvHT+mh21/R3AOlKslZrhWLN2i9Bmlo/3SlFU3Ss39+Tg+/Plf764t1ZMc+rfnkXU3fnaK0PkM0tGWJMhc7f8+H39eS7XnKK9qtNas2at3eNhp6WitlHBirh+4dqyc+WOW8D1nauytLGz6ZoTURGeoysLfaFazS0lmrlNvrSp05MExV85/R84+O1ZgtFaoqPKJDyz/S9PWVqmg/Qmd3LpPmPaJf3fum3pyzR9U1BdqzZbGmj5+tjfEDNWBwN3WqXaKlU6drXP5l+sU1QzTY+ftJ0UqKKVNkxTK9vbS5uvbopn5tYrzJhBPr9ddf1+zZs9W3b193QMEyFaBpc+fO1XPPPefGjW3yBMAfux72nnvucUtUnXrqqYqL+w/N2AIhbvTo0ZowYYK7qWBiYqLXimD42i4nPrx8ptbkNdfguz7UggWLtMBJQn4/MldZy1ZqxmHnDuFRiktIUGxMpHcdabjCIqIV6xwgcU5bwq4Zmj5jlT7rfLvGzF/oPMZUvfLDDmpTvldbq8qUu32KHht/SPFn3acXPpml0ff8VKNiDispskFhkdFqKNuktav3aEfHP+ixWc7zL1igiX+9RD3LVmnO1M1OolOrsPAwbdlUpoyRP9FLsyZp/CNXa8T+tzVh1gptK8nUlo9f1zNvFav/Xydr4qIFmvHCd3VS3gy9ft80bSqpUENclK1LVkb7VkpNiNXOxfN12Em4Vb9JG53ENLN2lM4Y1KC0xHrVOQlTTPV6LXj3TT22opt++PwMzVowV+Pu6KOkjR/qkbHrdTj/sNa/9qg+WBejbn9+XZ+Me1nvX9VNCakNyq6ts3dIEVGxiouPUVSY86Y12O8ar7CaHG1f8pZeefIjZZ38Vz342sP681llylq5RHNrL9fPx0zVXOf3n/3sH3RZ861aMm+Hok69Vb+5YqSGDx6qc35+l+7/fle1TotRfbiT2KXGOcnzXE16Zow+y/ixbnjtY82a9IT+2OewVr98r0YvP6yCqgSlxu5WeXpf9f/pp5o66QO98qtBStk6QyvX7FdR/nqtmvCOpjf7kW4aM9P9+71z+7c1ymnfU1muuqhEJZWsU1VUczX/6cea+PFkvXZzWxU4f4dxMzapNCrCOR4i3QM8pnifNi7brU0pP9DDkxZo3oL5mvfo9zWiar2Wz1ytPEWoLsI5npxkOHb4/9OPxs7SlNfv1m9ObtDW2Qu1bUedGvYeUNb+bCUPH6Y2XzyD06qN2gwcqNQd65V1KPM/tqTYimbn5uaqurraawHQlPLycrdmX2VlpbsxGgD/8vLyVFBQQJ1YIACFhYU6cuSIu8ETgutrm8R2+95f9dCTj+pvV3Zw/qtBDbUtlNEsTkkJNaq2z8+wMIVHRCjCSSQbz0GFhTv/bRsP2Fkp58v+HRlWq+oKO3DSdcqNd+sPt/xAp1VuV9HCNVoedapGnt9fZ6RGq23/Efr+tweoWXKUamyAk3qWLrr9CY195Cc6O9pJ9pxHSGqeqmZpKaqtrlW97Q7rNCYN/JZGjDxFvaPbqMvJP9AVQyqVt2eLts9YpOzPDmhbVA/1HByhFGe8lDT0ZJ08oLPq9+zU7opqVdvbX1Oj1F691LNHF6VuXqGV+QWq3b9Su4urlT9glEY5yViKnCTWScjy923U1g1ZKmjeRwPaRiveSWy7DRug03omKHf3Rm0p3apNe/KVNuhinXL+UKXGdVGbs7+nC7qlq3NUpSrr7H2xC8zDnffIfcsU5SS0h5c4SeDo17Wgza909ffO1PktIxWZMlh9fna/XnnpJv2oewvZAojoxHhlZKSpod55GCcZjo2OcpdGRMUmKDLGkkbncZ1kMDryiHKPbFd2cYp6f/tHGt4nQ9Gtz9fQ80/TsIZtWr14l47kVTuvo5k69+ylISNTlNqqpU4/dbA6tG6uyooq5y/u/H3DnccOr1N9XaXz7Onqe8HPdOvzv9b5rVMUVVap8prO6jB4lC7/dgs1z2ip4Vd9S0PDK5S1brVWOH/7Wif1D6+vV3nSIJ1zw+N69rHr9J1Wzu/stEelZygtOVF1NbbLb73zDju/YVhfDTy5iwa3j1Z6u/46a2RbpSSGO38i5zGO5DmvuVxtOnTQlyagw1IU07aN2hbmqLC0SEe95hPNlnJR7xIIjPUJ0dHRxA1wHCx22GEVCIzFjMUOcRN8X9uePCatWNlLRuuPPzxfo0adolNO+7UenX9Q2XEpiotwcgfvfn/nJLPOARLWUOckWfUq636RvveDc3RF1dP61VmnOY9xjr4/er02h6UqsTpfB7btVUl4stLSIo/tohsRqxYZyW6CZ0laeESSVLxR8+75sa46w3n+UaN08d0fa+7uaCXE2Rm+Y4lt+14D1LnDseUB9ZHpSm/m3FZbqYr8MkVFlutozny98csL9a1TRunMK+/X83PWK6fsgPYcbFBFhZNoN1SrvlUfte87UCfHZyo7u0IL5q1XZm6BUrt1V5LzTOH1Tgbs/G7V1fWKqMtR3ta3de/3z9GZo07TBde/qvc/26+anE3aUbtNW47aJkstleatWKhJbKH0OOc1h1mi9gV2JtaSxKLlys1dr/WFHZW730nuIkq9Mj6xTqJaoM2v/EHXX3y2Tnd+/zN/+5TGfuYkfU6iGhNWo5raY+Uq6mqqpFrn0Z2s3kk9nffwkApKDuhgYYIS0tIV7/6xkpTe3km+O9aptrxcVVXOz9W3VevWbdTNSSzt+uGwmHjFOBliQ3WJopsN0qgf3a5fx43XK7+9wP37fe/W1zW9obmSIuOc56lRVWpntezQTQPcXaRqpbTmSouJVENlqYqdlgb7Gzm/Z1hqnJLLtmvVc7/QD84dpdNGnarTfveupm2sUkpCtCKc96YhLEL1zburU4tmauc+XITiEpxEPTbKSRizlZeXrcxDYYp0fvcvj3+dx3cSymjnuLNrhoK0h1STTjrpJJ1zzjlunVg+GAF/unTpossuu0xt27YlboAA2MTP2WefrVNOOYU6sUAArE7spZdeyv4lJ8DXNIk9qg3vPKWnR8/Q6pq+GnXKqRp19gj1aZWopIYaWU7XuBAsKjpGTl7hqFBdYaHy62qddMhJJpLaquN3fq0//v6nuux05+dHdVbDkuf1+oufasGOBMU4CVNUpG157T6MmyTa8uAw54M6LDJKVZlzNfG5p/X8/CKlnDTK+fkzdEa/dmqbJif5svTo2GuoqqpQlbeis6bukA7n1Kis3Enl6mtVHZmshA6DdMqwkTrTSWJHnPZD/ez2R/TMoz/XhS3jFFtVpRrnfpVqr1ad+uq0kwq0b/s8vfHeTpXXZGjgyR1UHxHmJIpe+lnrJG7xzZTca5TOG3GK85pGauQl1+q39z6kp/78PQ1NTFZMTY2TZFryduxH7JSr/fufx2v2JtarujZSLU++Ut/+wdU6q/wdffDpEq3Kd27OW6elrz6kR8btUFHrvhrpJMxnntRTPVodS+AbX9I/s8eNdpK9GMVGO0l64ylfR11dtSorbYOIY+9eQ0O8op2/X5x7FDptNcdqadXXOHeKaabWwy7XzTf+Qld92wqsd1Fy/gJNuHusPtyQr9IG5/1zHq+2usrbWdl5QTlH3WW2Rc4va8+g8Ej3bxq3Z4Wmv/CsHp9yUA3DRjm/yxk68+TOapcerVr7RWxZob1B8XGKDo8+trNyfZ3zcpzk1n2gWOdYcdpj7H39xzfy2Jsb5tzPvet/yGmnnaYrrrhCrVu39loANKVPnz768Y9/zPWwQIBsFcN3vvMdXXTRRSSxQABs8sf6HdtQEMH1byexdibOLvRfunSpZsyYoQ8//ND9sn8vW7ZMe/fudROTwBzWqsnz9VlOF53/1xf12KOP6LF7L9Xwtk5yWVlvuYmTNNSqrKRc+/Znq9bNK4pUsHKFdtbWqcJJQmt2rtDieRu1sdcfde+jj+qxx17WzZ0OKGfBVC2P6KC2w3qqVdkO7dpVoUL78fIjWrtqnyqr6hQVE6XKvdO0dMF25Q/7gx559jHn5x/UTed3U4qTYNWHhSsy3EmAnR/bu3KV9uw7diVkVOl6rd1cqtrY5krv00HhzgHbMq67zrrpKT34qPMYD1yr/+ckT+mJLdWqZZhiYuvdhLimOlYtW7TRoC412j7rZU1fUKJw23BoQJJ7vW9dnZPwOe9hUmqKYpNbKjHjVP3PQ4/pkcce08O3X6Vv9U5VQmo3dYwZoFN6Jqk+f5t2ZR07Jxh7cI02HC7RoeooRX0x/7LsrKFO1TE91bLn5fqfK4br5xeWafWE6ZqyrlgV5Vu0ccY8bcm4Utc+M9r5/R/WA786RZ3Da93f2/6vwfnb14dHKSYh3nkiOz1uiWm9aus7qHlqZ7WKPaz9mzcp17185pAOrl+shXtjlNI23QnmKOd3Opa0/uPVNZGxCSrO36v1MydoUatf6do7nb+/8/e7+zvtVTfpXS0/UqDq6DgllG5R5r4dWmerjRWtqs1rtK3ISWnT26iz8/tFhEVYqqzo7QudY2GLdnb+ue583P6WD+nOS3urbWyVKhvC3QTU/Z2cxLXeef1/fz32007CXpeu5i1aq33rMJWWl6ruS5c1VKuhvFzFUTGKjoxUgtd6orVo0cLd6Y7BBOBfSkqKezaWzTWAwNgErvU5bdq0cRNaAP7Y5ps2ccqO3sH3byWxR48e1eTJk/WokyT+5S9/0W9+8xtdc8017pf929oecxKtSZMmuZvQ+Jektp1aqWVktrYumqdli+dq+QsTtGBrlvY6CUNRUb1iEp1BfJdmOrjiI00fN1fLZizQ9JX7VFRsSWaEavau1LSX79Ettzyn+U4yvWzZZC3I7aS2vQdq0JDWShs1Spc036iVH03Qi7OWafYnszR19RGVVdY5yY+TSKV1VKt2CWrYvUzT5813fv4NvTVnrdbsrVB5cYlKVe8k1BWqO7hBG5Z+qkVLJmrihGlaHT5UI88arD6nn64ep/bUqLrZeuPJKXp7ofManrtRN//817r55flaX1anuoh61ZRXqKysQjFJaWrZoY3qF63W0Zpmih8wWAPiqhRWW6kSJ1mvqKxSfKfhOmVoV/Xc86YefGmapji/18Tbr9d1v7hRD0xcp+zwjhr57XPVMneJ5r7yimYtnKyP3/xESzKPKscu4LVrP50kvLzczgA7mVt9taqdpCw/94iUmK6TrviZzqzZoM+mT9Ws4ni17NZayXmbtHTKNOf3/1RvfTJH87eXqiCvWGV19YqIjVRYwX7tWrdKm3cVqbKiUtVV5SopS1CLts570DdNeVOf1oR3ndcw5XlNmL5FB7tdqIvP6a6WqQ0qLip1fq8aL2l0Xk9tlZM8V6pGsarN361VH92lW//0kB4fZ3+/iZq5wbll0Pka0TNZiTF1akgq1dHdazTvjSWaNWO6Xpq0Q0U9huqSU4ZpYHWlakuLVVrtvMfpndW6XbLiDq12j4WFyyfqlSkr9dmWo5Lz+5daouo9d2WNl8I6CX6d87uUVTiJblW1ottmKKNFirK2bFdx+RfS7qo8le7eqcyWndUiLUMtvOYTzTalCXxyCPhma4wbNnUCAkfsAIGzuGG8dmIcV4kd+xDLysrSyy+/7Cawixcv1qFDh9xE1Xbfsi/bjct2gVy7dq17Rtb+gF27dnVPpzd9LVKi2iXmKXfXMn388UR9OnOFJpeM1NktC9SyZQuFt79Alw5OV+8O5dq2eJ5mTJ+smVn5yknrr26FYep63gU6/YLT1LVymza++7JemTRFEyfO1IaM7+jSH/1IV3aPd15HWw1NztLChVM15cMZ2p9VqJhOGdpT2klnnT9EowZ2VHj1Pq3/cLKmzpymyRPz1HlIC7VwEruKhnYaNiJJuctXKKJTO5UW7NPE0WM0dVOV2v/4Gd189QD1TYxTsw5t1S0lU9Nfe1UffvShJi/YouLeV+lHd9+oq9vHK+bAYk1dVamwzsP03XN6KCo5Xzunb1R2p8t08Y+u0GkdilSye73mLK1Sm/NGaUifvurVoYV6Vi7TmLHvOK97kqZ/VqzkM36qG+79gU5tlqyULp0VdeAzrZswXm/P3KoF2Z01rGux2g79lgb1aKn4/Su1bE+qBn3vFA2J2Kkli48oN32gLr94kNKb9VD3qvmatuaoilsP0ndPjdeuiR9r2jzn95+8S0pOUb8z2ig7v41GnN1X3SN3adOcuZq7OV9H47trWOxuLd8Tqfieg/X984apa8/mKl88XlOnfKoPZ6zUjrRz9Z2bH9RNp6QoqXKN5n6aqdI2/XTmZSero6qlvc7fe12dYroP0/9c1F9tOlZq69i39eHUCZo4eZZWlXbQyTfcqZ+e5CSxmTM1eW2VdmaXKGXzu3rzw2ladORkXXnzDbr5ol6qOrRWaxZvUXm/7+nUS0eqS9027Zg+xTmepmrq5PWKH9VfiVEZSohtpSGX9VBz5335dF2UWg0doQsHt1FU2REd3LBI80t6asSIYRo2MEyFe/dpwdxcdT29v3q1jHdngOr2Ou/nxMla1voKXXL2EPVp8Z+Zod61a5cOHDjgXmPB2VjAn+zsbLe+spUH4fokwD8bw61bt075+flKS0vjbCzg0/bt27Vz505lZGRwNjbIwpyENOBptZUrV+qZZ55xa+5Z8uqHLUE577zz9Lvf/U6DBw/2Wr9C9REd3rNbWw8UqLw+VmEtemlA4lEn1YlWTWpP9WzppBD1h7Vnwy7tySlWTXJzpTZrobSiUsV07KLWLRMVVXhAuzZs1e6SWjU4KUdsh0Hq6yShrRp3l609rL1bdyszt0a1+xZr+odjNabil3r5kWv1vZNTVVGwRzvX71F2uXN7Q7p69klWeES4iioS1bFDrCr271NFZKxKSiuUe/CI6uLT1K7/CPVOl7c5kvPWlu3VulU7dbisVnURsU5i21u9erdRmt3mPP7WzCrVJrVR786pzh/jqLLW7VVOZFu169JWbRIqVZV3UDv22FnY9mrTIklxtnVQzlYt2ZSl4krnMaKbqXW3Xs7Ppx3boMpRdnCrdm07oINVsYpMaaNuzQpVn9JZaSkJiszfr71Ho9SiVzu10VHt3VOk4pgM9ezewnlsR8E2bdhfo/CM9uqdUam9K7dpf1G5KutS1K5DMzXPCFf2kTh16NJa6c77f2D7bu0ri1NCm27ql1Sg/UfrFJbWWr3aWRmacuVsWK3th0pU0hCphNbd1b13Z7W1F1p9SLu35qs8rrk69GitFNuYKX+fNmc6v19qG/XpmKIw5WrP8o3aU1Cuqnrn75feUZ0H9FGXOOc+82/T/3tgq9Y3O0sPXNtLYeXhikjqrgEndVXrxDBVFR3Uob3ZqmjeS+3bJyq2YJ/2bN7l/C7O+x2WqA792yuyrF61dbFq27uFEvMPaGtWvWJbOu9X6ySFV5eq6NBu7SxLVeu2bdU2tUYHF47Tyw89rUPfe0u/vaKfTkp1BsSTX9Nzd65U2pOP6Jejuqtz4x/hBHv66ae1Y8cOXXvtterXr5+PiSEAU6ZM0WuvvaY//OEPbq1L4gbwx+rE/v73v1dqaqr++Mc/ut8BNO2hhx7SqlWr9Pzzz6tly5ZeK4Ih4CR237597h/i2WefVVVVldfqj50xuuGGG3TdddepY8eOXuv/haPKWztFz72+WgernTzQyTiL9+zXzqMRGnXLHfrDeYPUrhmzJV9bDRXSrFv07T9t0O4Rf9Sc0ZfpP/GxUFu4XRs/vVN3ju6kkbf+Wue3maUFz72vORF/1V8fPEXD0mIV6FFTUVGh1atXa82aNRo0aJBOP/1075avZoMImxW/9957NXz4cAbjgA+vv/66HnjgAT3xxBO6+OKLiRvAJ6tJfskll6h58+bu+M92xgfQtN/+9rfuSb9Zs2a515UjeAK6JtZm4uz61o8++ijgBNZYgXnb9Mke4/+2WLaTtzfUqLYsX7k52Tp0KFvlSV006kd/0k3fH0IC+7Xn/H06nq3LrrlK15zRzjvrfeJFpnZW38tv1g9GtVHXxAbVNzRThwHn6Orfn6OByYEnsI0sFmypyZtvvqnHH3/c/bArKzu2Wdj/xpZ22bL941hIAXxjNcYN1ycBgbPY+b8duwGhx2LGYgfB5/uaWOv0N2zY4M7A2XWux6ugoMD9Y1qdS1sf/n8zE56g+NZDdPZl39P3v/999+uqKy/SBcM7yBbB4msuzElb0/to8KjhOrV/a/3nrmyLUERUW/U/d7j6dkxT21Z91Gf46RqYLkUf5xZpVgS7U6dO7soEW+Vg15fbMuG8vDz3g88KZCck/POex/v373ev6xs5ciS1YgGfjhw5opKSEp1xxhlq164dcQP4ZGNAu7bP+irrd9iLAfDHqrTYWM7KU/2r8RyOn+/lxLbs0ZZg2VJi2xzj32GF5q+//nrddNNN7h8WgFReXq7MzEz3ur2ZM2e6G2ece+65uvDCC9WhQ4cv1RizlRA2GWQDCTbYAPyxJZH2ZXHDBhtAYGyFkE382AQqE0CAP5Y/2UkJ20wwPPzfKgqDf+A7iS0uLtbPfvYzTZw48d9eimWD7u9+97saO3YssxLAP7CzsDZzZ7t6z5s3z/1vm/m+6qqr/G2KBgAAAPwX853EWvmcb3/721q6dKnX8u8ZMmSIxowZ4y4ptrNKzOoBTkA6cdB4dtXOytqmT7Z83/5todqzZ0/37OzZZ5/tLkUGAAAAvml8J7FWl/LKK690d0QNhhYtWug73/mOmjVr5m4Y5fNlAN8IlszaUvuUlBQ3Pmx79gULFrjLUoYOHarLL7/c3cm4R48e7n0ANO3gwYPas2ePevXq5fZBAPyxFXg2qWr9Uu/evbkUDPDJapNbfWUbu3EteXD5TmJtsxnbAClYSaydgf3Wt76lxMREd8BOEgscY/FgZ1ltkFBUVKTdu3e7A2/b3dvqLds15faBaPVhbev2Pn36eD8J4KtMnTpVb7zxhm688Ua3TiwAf2wy1fYxsUnTW265hTqxgE8PP/ywOwH03HPPubkPgsd3EmuDZqsRZtfpBcOoUaPccjt8EALH2AX/tozYkljbQdVibsWKFe516OvXr3d3hfzhD3/oxqFtsmYTSnfeeac7u2c/A+CrvfXWW3r00Ufd4vO2UyRxA/hjG6JdccUVbp1Y63/sO4Cm2aSpraSzSVTbFR/B4zuJtUG1bew0YcIEr+X42WDdzurajDjX9QFfZteIW1FsizVbhtK1a1ddeuml7uZOLVu2dDdDs8pYtsT4b3/7G0ks4FNjEmsz47brN3ED+GNJrG3IaZeAkcQC/pHEnji+93qOiYnR+eefr27dunktx88e47zzzvP+C4ApLCzUm2++qWuuuUb33XefW3LnRz/6kX7/+9+7g4cuXbp8vpu31ZY9+eSTuR4WCIAtxT/ttNPc62FJYAH/7OSD9TkDBgzg5AMQALuG/JRTTnFLUyG4fJ+JNbYphl0L8f7773stx8eWRD722GNq3bq11wJ8M9lmGbbzsM3SzZ07VwcOHHATUxssnHPOOe7Z139l3759bs0+qx/beF05gK925MgRtx+zSaC0tDSvFUBTbKi4detWt76yTahSZxnwx/Y1sf1NbB8TNkQLroCSWPPBBx/ojjvu0Pbt272WwNiMhJ1lsmsrgG86W6JlCaxd8J+Tk+OuULBJHosTAAAAAP8s4CS2rq5Ozz//vO655x7l5eV5rf6kp6e7G9Fcd911nDkCHHb9q133unHjRp100knuTJ0t2wIAAADwrwWcxBrbNdU2ZXrmmWfcpZCW2H4V23HVlj3+7ne/049//GOWcQEeCz87G1tbW/v59a5+2FlbK7lj27VznQXgj113npub626QlpSU5LUCaIr1VXa5iy0jbtWqlTuuA9C07Oxs9/IvqzDB9eTBFXGXbXMaIBs023JHO3NkfxC7Ps8G1P+KJay2PPLPf/6zLr74YhJY4AtsRYINCgK9TuKdd97R9OnT1blzZ3eFAysbgKbNnz/fXbpv18TaJk/EDeCPTbRaaSq7LtbGfrGxsd4tAL7Kq6++qvHjx+v0008P6GQFmnZcZ2K/aNu2bW4tSzsjm5WV5c44GNu0ybaSbt++vbs5TY8ePdx2AP8+22Bt7dq17vXlI0aMYDAO+PDaa6/p/vvv15NPPunWWyZuAH9sxdC3vvUtt7SOXVJmk6cAmnbttde6G3fOmTPHzYkQPP/2xXe9evVylwjffvvtuvvuu/XXv/7V/bJrZq3NbiOBBQAAAAAEQ1B3kLHrjIYNG+Z+2bV6AE4Mu8bclvRzXR/gn9WHHTRoEJe1AAGyVQvW53Tv3p3yOkAA7LKvgQMHUl7nBPi3lxMD+M87evSou7OxLe1iYyfAH6vVZxsT2iQr1yYB/tlQ0Wos2+75dsKCjZ0Af2wjzvLycncpMRNAwUUSCwAAAAAIGRSkBAAAAACEDJJYIARZvT7bGdxqjwHwx2rEbty40a0XC8A/W7S3fft27d692y23A8AfK0O6YcMG1dTUeC0IFpJYIATZVu1WK9bKWnFFAODP+vXr9cILL2jnzp1eCwA/LHG1PmfixImqqKjwWgE0Zdq0aXrxxRdVXFzstSBYSGKBEGSz4TYg50MR8O/w4cNavny58vLymPwBAmDxYn3O5s2b3ZqxAPzZsWOHPvvsM1VWVnotCBaSWCAE1dXVuUtT6uvrvRYATbG4sQE4cQMEzvocOyPLBBDgn8WM9TvETfCRxAIhqF27durRo4cSExO9FgBNSU9P14ABA5SamurWvQTgj8WL9Tldu3ZVVFSU1wqgKR07dlS/fv0UExPjtSBYKLEDhKAtW7a4NS979erFgBzwKTMzU7t27VKfPn3cWpcA/LHVC7YkMjo6Wv379yeRBXyyTZ1sU8FRo0YpNjbWa0UwkMQCAAAAAEIGy4kBAAAAACGDJBYIQVbioLS0lHp9QACqqqrcZfjU6wMCZ32O1SZnYzTAP4sZ63eIm+AjiQVC0IQJE/TEE09oz5497HgH+LR06VLdfvvt7jVKxA3gn02YPvnkk3r55ZfdZBaAP1Zf+Y477lBBQYHXgmAhiQVC0Lp16zR//ny33iUAf/bu3atPPvlEhw4d8loA+GFnkazPWbZsGXVigQCsXr1a06ZNU3l5udeCYCGJBUJQeHi4IiIi2JUYCIDFTWRkJHEDHAfrc+wLgH/EzYlDEguEICsP0qFDB8XFxXktAJqSkpLi1rmkvjIQGJv4sT6nbdu2DMiBALRq1Yr6yicIJXaAEGS1Lu26pC5duig5OdlrBfBVsrOztX//fnXr1k3p6eleK4Cm2HJiu5bcBuI9evRgQA74tH37dvd62JNOOkkxMTFeK4KBJBYAAAAAEDJYTgwAAAAACBkksUAIOnr0qDIzM916sQD8sVp9tkOx1e0D4J8t2svKynKX5NfV1XmtAJqSk5Pj9jvU9Q8+klggBC1YsMCtFWsDCq4IAPzZvHmzxo4dq927d3stAPywxNX6nKlTpzJ5CgRg9uzZbr9TUlLitSBYSGKBELRx40YtWrRI+fn5XguApuzbt0/Tp09n8gcIkG3sZH3OZ599pqqqKq8VQFPWrl2rmTNnMvlzApDEAiHIBhFWOJtlXYB/NTU17lJilnUBgbM+xwbiTAAB/lVWVrr9jk0EIbhIYoEQ1Lx5c7Vp00axsbFeC4CmWDkqq3WZkJDg1r0E4I/FS+vWrZWRkUGdWCAAVs6tffv2ioyM9FoQLBF3Obx/AwgRVqOvc+fObr0+BuSAPzaIsMmfAQMGKCUlxWsF0BTrY6zGZd++fd2+hwE54I+N17p37+7GTnR0tNeKYKBOLAAAAAAgZLCcGAAAAAAQMkhiAQAAAAAhgyQWCEEffvihnnrqKe3Zs4edIgGfli5dqjvuuEMbNmwgboAA2I7e1ueMGTNGpaWlXiuAprz77rv629/+poKCAq8FwUISC4SgJUuWaNKkScrJyfFaADRl27Ztevvtt916sQD8s/IgH3/8sWbMmEG9SyAA8+fP1zvvvMPkzwlAEguEINvtzna5Y1diwD8rDWI7rIaH0/UBgbJ+x77odwD/LGas3yFugo+eHAhBVh7E6vXZByMAf6wcldW6jIuL81oA+GV9jtW8ZBII8C8tLc3td6ivHHzUiQVCkA3Ge/bs6X7ZvwE0zSZ9unbt6taJTU5O9loB+JGamqqBAweqU6dO1IkFfLIxWr9+/dSnTx/3rCyChzqxQAiqqalxN6axgQSz4oA/dXV17gY1NpAgboDAVFdXu0sird9haSTgj43X7JpyLgELPpJYAAAAAEDIYCoaCEElJSXKz893Z/gA+GO7qh49elRVVVVeCwA/7HyH9TmFhYXuWSUA/hQVFbn9jq0EQnCRxAIhaPny5Zo6daqOHDnitQBoyvbt2/X+++9r//79XgsAPyxx/eSTTzRnzhxVVlZ6rQCasmjRIo0bN05lZWVeC4KFJBYIQZbE2oDC6sRyRQDgzxeTWOIG8M/OIlmfM3v2bJJYIACLFy92k1jqxAYfSSwQguzD0JZ12UYbAPyxwXdeXh5xAxwH63OKi4tZTgwEwC7/sn6HuAk+klggBMXHx7slQtiuHfDPSuxYzT52iQQCZ31OYmIiO3sDAbCYsfJU1IkNPurEAiHIlna1b9/erT2WlJTEgBzwweKmWbNmOvnkk93vAPyz+Ondu7f7xQQq4I+VdevYsaOGDBniTqQieCixAwAAAAAIGawJAQAAAACEDJJYAAAAAEDIIIkFQtCsWbP05ptvKisri1IhgE/r1q3Ts88+qx07dngtAPyw62HfeustffjhhyovL/daATTFavo/99xz7s7eCC6SWCAEzZ8/X+PHj9ehQ4e8FgBN2bhxo8aMGaPdu3d7LQD8sCTW+pwpU6aooqLCawXQFDvpYP2OldpBcJHEAiHIdrurqanhLCwQAKvTZzVi7TuxAwTG+hz6HSAwNgFE3JwYJLFACEpISFBKSooiIyO9FgBNiY2N/bxOLIDAWJ9jJd2oEwv4Z+M163eIm+CjTiwQgmxGr0OHDurbt69bgB5A0yxuMjIyNHjwYOrEAsehT58+6tmzJ3ViAZ+s3+ncubPb71AnNrioEwuEINtYw5YUx8fHczYW8KmqqsqNHZsZ52wsEBjbmCYsLMyNH84qAf6Ulpa6y4ltJQNxE1wksQAAAACAkMGUABCCGs8o2YYBAPyx2fCysjJ3FQOAwFifYzsTc+4D8K+ystLtd4ib4COJBUKQ1bucN2+e8vLyvBYATdmzZ49bs4/SVEBgbEdvK+22dOlSdxIVgD8rV67UJ598Qn3lE4AkFghBlsC+//77OnjwILN7gE9WJ/bll1/Wrl27iBsgALbqx/qcjz/+mDqxQABmzpzp9jt2TTmCiyQWCEH5+fnKyclhRhwIgG2wkZWVxYw4ECCb9LE+5+jRo1zGAgTAxmt2woG4CT6SWCAERUREuLsS206RAPyxnSGtNAg7RAKBsz6HfgcIjPU3VJE4MagTC4SgkpKSz+tdpqamMqgAfLAzsLGxsRo5cqRatmzptQLwo6CgwK0RO2DAAEpUAT4VFRW5/c3pp5/u9j8IHkrsAAAAAABCBmuqAAAAAAAhgyQWAAAAABAySGKBELR8+XK37pjtFskVAYA/27dvd8uEHDhwwGsB4IftrGo1lmfPnq3KykqvFUBTFi1a5PY7ZWVlXguChSQWCEFz5szRO++8427bDsCf9evX64UXXtDOnTu9FgB+WBL77rvvauLEiZSoAgIwbdo0jR49mjqxJwBJLBCCbHdiqz1WU1PjtQBoip1Bys3Ndb+zggEIjO1ObDut1tfXey0AmmLjNet3qBMbfCSxQAiKiYlRXFycWy8WgD9Wqy8hIYGafcBxsD7HSoRQ0g3wz8Zr1u8QN8FHnVggBDXWiR00aJBbJxZA0yoqKtwBxfDhw934AeCPrVyws7Ddu3dX//79qRML+GRxY/3NqFGjqBMbZNSJBUKQLSWuqqpSs2bN3EE5gKbZ5E9hYaGaN2+u+Ph4rxVAU2yoaBsJhoeHKz093f0OoGmNl7C0atWKVUBBRhILAAAAAAgZTKUBIcg2CLAv5qAA/2xDGuIGOD6N/Q4A/yxmamtrvf9CMJHEAiHI6l1+9tln7tJIAP5YSaqFCxfqyJEjXgsAP2wCaOXKlW6Zqurqaq8VQFM2b97s9jvUVw4+klggBFndsbFjxyozM5OzSoBPq1ev1uOPP65t27YRN0AA7GyS9Tnvv/++ysrKvFYATfn444/15JNPctLhBCCJBUKQbbCxb98+is4DAbBBxM6dO90NngD4Z5M+1ufYxClLigH/Dh06pF27dlHX/wQgiQVCkF1fYR+InE0C/LMlkbYU0r4DCIz1O/ZFvwP4ZzHDEvwTgyQWCEEDBgzQGWec4ZbYAeBPp06ddNFFF6l169ZeCwA/rKTO6aefrhEjRlDWDQjA4MGDdeGFFyouLs5rQbBQYgcIQbacy0I3IiJCYWFhXiuAr9K4O7HFDXUugcA07rBKrUvAv8bVCxY3jNeCiyQWAAAAABAymIoGAAAAAIQMklggBG3cuFGLFy9Wfn4+m2wAPu3fv18zZ85Udna21wLAD1uKv2jRIrc+eVVVldcKoClr1651+52KigqvBcFCEguEoDlz5uidd97RwYMHvRYATVm/fr1eeOEFt8wOAP/sWvJ3331XH330EYNxIABW1//FF19UcXGx14JgIYkFQpDVibWzSgwmAP+sTqzV6ystLWUFAxAAi5cDBw64E6eNGzwBaNrhw4e1e/du6sSeACSxQAiy3VXZ6Q4IjO1ITNwAx8dih/gBAsN47cQhiQVCUK9evTRs2DClpqZ6LQCa0q5dO5111llq2bIlAwogADYBZH3OSSedpOjoaK8VQFP69evn1vWnTmzwUWIHCEFZWVnuUuI2bdooISHBawXwVfLy8tylXZbMpqSkeK0AmmJDRVuKb2eU2rdv734H0DRbhl9SUqIePXooKirKa0UwkMQCAAAAAEIGy4kBAAAAACGDJBYIQbaceMeOHSorK/NaADQlNzdXmzdvVlFRkdcCwA9btGelqfbu3cvuxEAAbDmx9TvV1dVeC4KFJBYIQZMmTdJzzz2nffv2USoE8GnFihW65557tGnTJuIGCIAlrtbnvPbaa26JKgD+jBs3Tvfee69b4g3BRRILhCBLXm1mzzYLAODPkSNHtGbNGuXn53stAPywSZ8tW7a4K4A4Ewv4t2fPHq1du1ZVVVVeC4KFJBYIQTagaPwC4I/FS319vfdfAAJhsUP8AIGh3zlxSGKBENS9e3e3Xh9lQgD/rCTVyJEjlZ6e7rUA8MPqKlufYzUvKRMC+NezZ0+334mNjfVaECyU2AFCkF1bYZsEWBIbExPjtQL4KnYtX3FxsdLS0ig8DwTIluOHh4e78RMREeG1AvgqdvlKZWWlWrZsSdwEGUksAAAAACBksJwYAAAAABAySGKBELR7925t2LCB3YmBABw+fFgrV65kd2IgQLYxjfU5W7duZXdiIABWX9n6HerEBh9JLBCC5s6dq3fffVcHDx5kh2LAJxuEjx492h1UAPCvrq5O7733nlujvLy83GsF0JTp06e7/Y7tx4DgIokFQpDVid20aRMfikAAbGOaVatWuWdimfwB/LN4sT5n+/btqqmp8VoBNMVWzll9curEBh9JLBCCbEDBIBwIjMWMLYskdoDA0e8AgWuMG2In+EhigRDUoUMH9e7dW0lJSV4LgKa0aNHCrXXZrFkzt+4lAH8sXqzPsRrl1IkF/OvUqZMGDhxIndgTgBI7QAjasWOHu6lTt27d3FqxAJp26NAhdyl+jx49lJ6e7rUCaIqtYFi3bp2bwPbq1YtEFvDJNkMrKCjQySefTF3/ICOJBQAAAACEDJYTAwAAAABCBkksEIJsKbHtsErdMcA/Kw1y9OhRdokEjoP1ObYs0pYWA/CnqKjI7XesTBWCiyQWCEHjx4/XY489pj179rDjHeDTkiVLdOutt7rX9hE3gH+1tbV6/PHH9dJLL7mTqAD8eeutt3Tbbbe5E0AILpJYIARt2bJFy5cv50MRCEBmZqbmzZvn1osF4J+dfbU+x+pdUicW8G/jxo2aP3++KioqvBYEC0ksEILCw8PdL8qEAP5ZvFjcAAhcY78DwD/i5sThXQVCUNu2bd16fQkJCV4LgKY0b95cffv2VWpqqtcCwA+bALI+p3PnzoqMjPRaATTF6vpbvxMdHe21IFgosQOEoP3796usrMz9cExMTPRaAXwVW0ZstWI7duyotLQ0rxVAU2yoaPUurT4siSzgn+1dUlxcrD59+pDIBhlJLAAAAAAgZLCcGAAAAAAQMkhigRCUnZ2tvXv3unUvAfhju3nv2LGDEiFAgGzRnvU5Bw4coN4lEICDBw9q+/bt7Op9ApDEAiFowYIFbq1Yu76PKwIAfzZt2qQxY8Zo9+7dXgsAPyxx/eCDDzR16lRKhQABmD17tsaOHavS0lKvBcFCEguEoM2bN2vp0qXUiQUCYGeR5syZo8OHDzP5AwTA6sRan7Nq1SpVVVV5rQCasn79es2dO5eVcycASSwQgmpra1VdXe0OLAD4Y2eTKisriRvgOFifY0simQAC/LOYsX6HuAk+klggBKWnp6tdu3aKi4vzWgA0JTk52S0PYvWVre4lAH8sXqzPadWqlSIiIrxWAE3JyMhQp06d3PJUCK6IuxzevwGECEterfC8fdm/GZADTbMafVYj1grPW0ILwB/rY6wmeb9+/dwYok4s4E98fLx69erlfpHIBhd1YgEAAAAAIYPlxAAAAACAkEESC4QgW0DBIgogcMQNcHzod4DAETcnDkksEILeffddPfDAA9q5cycfjoBPVl/5pptu0po1a4gbIAC2I/6DDz6oZ599ViUlJV4rgKZYjdibb75ZeXl5XguChSQWCEGrV6/WrFmzlJub67UAaMquXbs0adIkZWVleS0A/LCyVNbnLFq0yC0XAsCfFStWaPLkydSJPQFIYoEQZDtD2k6r7EoM+GelQSxuwsPp+oBAWezY7qr0O4B/FjOM104MenIgBFmd2LZt2yo2NtZrAdAUK6tj9fqsTiwA/2wA3qZNG+rEAgFq0aIFZalOEErsACFow4YNKioqcutdNmvWzGsF8FX27dunHTt2aMCAAe5gHIA/tpx4yZIliomJ0aBBg9wzSwCatnbtWh05ckSnn366W9cfwUMSC4Sguro6d2MamxFniQrgjw3ELXYsblhSDATGNncynFEC/LO4sfGaxQ3jteAiiQUAAAAAhAymooEQVFhY6C5Pqa6u9loANKWsrEzZ2dmqqKjwWgD4Yec7jh496pYJsRUNAPzJz893+x1bBYTgIokFQtDSpUvdLdtzcnK8FgBN2bp1q95++2332lgA/tkA3PqcGTNmUGIHCMD8+fP1zjvvqLS01GtBsJDEAiFo5cqV7mDCzsZyRQDgz86dO/Xhhx8qMzOTuAECYGdfrc+xATlJLODf8uXL3X7HVgIhuEhigRBkyyFtVq9xow0ATbPl97ard01NjdcCwC/rc2wgznJiwL/y8nIVFxcTNycASSwQgqzOZWpqqltEG4A/Vle5efPmbpkQdokEApOSkuJ+sbM34F9SUpJbCpH6ysEXcZfD+zeAEGGDiM6dO6t3795KTExkQA74YHFi9WFPOukkpaWlea0A/LASIX369FH37t2ZQAV8svFat27dqK98AlBiBwAAAAAQMlgTAgAAAAAIGSSxAAAAAICQQRILhKApU6Zo9OjR2r9/P6VCAJ+sNNVDDz2kLVu2eC0A/LA6sS+99JJbZ5lSIYB/EyZMcPsd2xkfwUUSC4SgZcuW6eOPP1ZOTo7XAqAp27Ztc4vO79u3z2sB4IclsTZ5OnPmTOrEAgFYuHCh3n33XbdEFYKLJBYIQTagsBqx1B0D/LN4sRqx9p0VDEBgLHas3yF2AP8ax2vETfCRxAIhKDk5Wenp6WzXDgQgPj5eLVu2VFxcnNcCwC/rc6zeJXViAf+spr/1O9SJDT7qxAIhyD4MG+vEWiFtAE2zwbfViR04cCB1YoEAWW3Yvn37ujUvqRML+GP9TteuXd1+hxMPwUWdWCAEVVRUuEtU7IwSs3uAP9XV1aqqqlJsbCyDcCBAtqFTWFiY2+/YdwBNKy8vd5cTJyYmsoohyEhiAQAAAAAhgykBIATZmVjb6c5m9wD4Y2dii4uL3Q1qAATG+hw7G8u5D8A/OxNr/Q4bcQYfSSwQglavXu2WOsjNzfVaADRl165dmjhxorKysrwWAH7Y5SuzZs1yy4VQYgfwb/ny5W6/Y8ksgoskFghBCxYs0AcffKBDhw4xKw74tGnTJr366qvavXs3cQMEwJJY63OmTp3qrgQC4M/s2bP12muvqaSkxGtBsJDEAiHIlqbk5+e7yyMB+GOD7yNHjnAmCTgO1ucUFBSwLBIIQFFRkdvv2EQQgoskFghBtiNxZGQkO90BAbB4sRIHFj/srgoExnb0ti9iB/DPxmrW7xA3wUedWCAE2Zmkdu3auXXHUlJS+HAEfLANnZKTkzV8+HClp6d7rQD8sJUMVpu8X79+1LsEfLLxWvv27TVy5Ei3vBuChxI7AAAAAICQwVpEAAAAAEDIIIkFAAAAAIQMklggBDWW2MnOzqZUCOBTY4mdPXv2eC0A/KDEDnB8rMTO2LFjVVpa6rUgWEhigRBkBecnTJjg1okF4I8lsTaYIIkFAmNJrPU5n3zyCUksEADqxJ44JLFACLIZvcLCQtXW1notAJpSVVXl1rq076xgAAJj9S6tRjl1YgH/bLxm/Q51YoOPJBYIQfHx8W6pEKs/BsCfmJgYpaamurUuAQTG+pzExETqkwMBsPGa9TvETfBRJxYIQbacq2XLlhowYIBbJxZA0+wMrA0ohg4dqhYtWnitAJpiKxfKysrUo0cP9e3bl4kgwCeLm9atW7v1yakTG1zUiQVCkC3rqq6udhNYis4D/thgwq5LsllxBhOAfzZUzMvLc88mcVYJ8K+goMCdQLWJ04iICK8VwUASCwAAAAAIGUylASHINnSqqalhcxogALaxhsUNG9MAgbPYYTNBIDAWM7ZyjvFa8JHEAiFo8+bNWrp0qbvjHQB/Dhw4oDlz5ignJ8drAeCHTfxYn7N69Wp3aSQAf9avX+/2O5WVlV4LgoUkFghB06dPd+uOZWZmMrsH+LR27Vo98cQT2rZtG3EDBMBWMbz++ut6//33VV5e7rUCaMrHH3+sp556yt3LBMFFEguEINtg49ChQ8zsAQGwGpf79+93N3gC4J9N+lifY6sYqHcJ+Jebm+uuAmIpfvCRxAIhiGssgMDZ4NvihmtigcBZ7LAXAxAYixnGaycGSSwQgqzO5YUXXkitSyAA3bt313e/+121b9/eawHgh5XUueCCC3TmmWdSngoIwMiRI3XFFVcoISHBa0GwUGIHAAAAABAyOBMLAAAAAAgZJLEAAAAAgJBBEguEoDVr1rh1x2zXO64IAPzZvXu3Jk+erIMHD3otAPywzdBmz56tRYsWUScWCMCKFSvcMjuUpgo+klggBM2bN0/vvfeeW/IAgD8bN27Uyy+/rF27dnktAPywnb3HjRvnTgIxGAf8mzFjhtvvlJSUeC0IFpJYIAQdPXrUPZtUUVHhtQBoitWJ3bdvn0pLS1nBAATA4sX6nMOHD1MnFgiAjdesPrmV2kFwkcQCISg6OloxMTFu2QMA/kRGRrrlQSIiIrwWAH5Zn2NfYWFhXguApth4zfod4ib4GAEDIahPnz4aNWqUmjVr5rUAaIrVhz333HPVqlUrBhRAAGzC1PqcIUOGuIksAH8GDBigc845R/Hx8V4LgoU6sUAIsiVdlZWVysjI4IMR8KmgoMDdDM2S2KSkJK8VQFNsqGhLIm01Q+vWrVnNAPhke5eUlZWpU6dOioqK8loRDCSxAAAAAICQwXJiAAAAAEDIIIkFQtDevXu1adMmtmwHApCTk6PVq1crPz/fawHghy3asz5nx44dqq2t9VoBNMXqk1ttf+orBx9JLBCCJk2apGeffdZNZrkiAPBn+fLluvvuu93BOHED+GeJ63PPPaexY8e6JaoA+PP+++/rnnvuUWFhodeCYCGJBUKQbRRgs3sUnQf8szOwW7dudevFAvDPJn2sz7E6y5yJBfzLyspy+53q6mqvBcFCEguEoPr6eveLs0mAfxYvdXV1xA1wHBr7HQD+ETcnDkksEIL69u3r1uxLS0vzWgA0pUOHDm6d2JYtW3otAPz4Yp3Y6OhorxVAUwYOHOjWiY2Li/NaECyU2AFCkF2TVFNTo8TEROqOAT5VVFS49fqsRmxMTIzXCsAPu6YvLCzMjR9LagE0zS5fsaXEzZo1I26CjCQWAAAAABAymBIAAAAAAIQMklggBG3fvl2rVq1SUVERm9QAPh08eFCLFy/W0aNHvRYAftjGNNbnbNiwwb2UBYA/W7Zscfsd6sQGH0ksEILmzp2r9957zx2UA/DHBuCjR4/Wrl27vBYAftiu3lbv0mqU27XlAPyZPn26XnrpJUq7nQAksUAIyszM1LZt2yg6DwQgNzdX69evV0FBASsYgABYvFifYxNA1LsE/Nu/f787gcqZ2OAjiQVCkO0QyS53QGAa48a+AwiMxQ7xAwSGfufEYRQMhKDOnTurX79+Sk5O9loANMXqww4dOlTNmzdnQAEEwOLF+pxevXpR1g0IQLdu3dz6ypR1Cz5K7AAhaO/eve5S4k6dOrk1+wA0LScnR1lZWe4kkNXsA+CPbexkG9RYAtu1a1dFRkZ6twD4KrYE3zbh7N+/v6Kjo71WBANJLAAAAAAgZLCcGAAAAAAQMkhigRBku6sePnxYlZWVXguAptgSfFtOXF5e7rUA8Mv6nCNHjrjldgD4Y7viW79D3AQfSSwQgqxG7MMPP6zdu3dTKgTwaeHChfrTn/6kdevWETdAAGpqavTII4/ohRdeoLQbEIA33nhDf/7zn5WXl+e1IFhIYoEQtGfPHrfeJcWzAf/sTNKKFSsYTAABskkf63O2bt3qJrQA/Nm5c6c+++wz6sSeACSxQIiiRAgQGIsZ4gY4PsQPEDiLGer6nxi8q0AI6tKli7tdO3ViAf++WCcWgH82ELc+hzqxQGCsTuzJJ59MndgTgBI7QAg6ePCgKioq1KZNG8XHx3utAL6KLSO2WrFt27ZVSkqK1wqgKTZUtD0YrD5s+/btFRER4d0C4KtkZma615FbfWXqxAYXSSwAAAAAIGSwnBgAAAAAEDJIYoEQZMtTduzYobKyMq8FQFOsXt+mTZtUVFTktQDwwxbtWZ9jO+PX1tZ6rQCasn//frffYVfv4COJBULQ/PnzNW7cOB06dIh6l4BPNpB45ZVXtGvXLq8FgB91dXUaP368pkyZ4u7HAMCfmTNnasyYMSopKfFaECwksUAI2r59u1t3rKCgwGsB0JSsrCwtWLBAR44cYfIHCEB9fb3b56xdu1bV1dVeK4CmbNmyRQsXLmTy5wQgiQVCkA0obGYcgH+WuFrckMACgbPYsb6H+AH8s7ih3zkxSGKBEGT1Ljt16qS4uDivBUBTUlNT3Zp9SUlJbt1LAP5YvHTs2NEtT2VldgD406pVK7e8DvWVg48SO0AI2rx5s7s5Te/evZWWlua1AvgqBw4ccDen6devnzuwAOCPnYFdtmyZW+dy4MCB1LsEfFq3bp27qeApp5zCiYcgI4kFAAAAAIQMlhMDAAAAAEIGSSwQgqxOn+0QaUu8APhjm2tUVVURN8BxsD7Hal2ygA/wz2LG+h3iJvhIYoEQ9NZbb+mee+7Rzp07+WAEfJo3b55+97vfadWqVcQNEACbOL333nv15JNPUu8SCIDVJr/xxhuVl5fntSBYSGKBELRx40YtWbJE+fn5XguAptjGTlZ4/vDhw14LAD9s9YL1OStXrnTPKgHwxzZ2mjVrFnViTwCSWCAEWYkD+6JMCOBfeHi4W+bAvgMIDP0OEDiLGXbzPjHoyYEQZOVBunTpovj4eK8FQFOsHFWvXr2UnJzstQDwwxLXzp07q0OHDu6gHIA/Vlu5R48eJLInACV2gBC0detWFRcXq2fPnkpNTfVaAXyVrKws7d69262vnJGR4bUCaIotJ7alxDExMerTpw8DcsCnTZs2uXViR4wYodjYWK8VwUASC4QgG1BY6NqySJZ2Af4QN8Dxs929LW5Yjg/419jvREREeC0IFpJYAAAAAEDIYDoNCEG2VfuhQ4fYJRIIgJUGsR2Ky8vLvRYAftj5juzsbOXk5LhnlgD4c/ToUWVmZrplqhBcJLFACFq8eLEmTpxIqRAgAFu2bNGbb76pvXv3ei0A/LClxNbnTJ8+nVIhQACsPrn1O6WlpV4LgoUkFghBq1evduuOHTlyxJ0hB9A029Rp0qRJ7gZPxA3gn519tT5n4cKFqqys9FoBNGXFihWaPHmyysrKvBYEC0ksEIKqq6vdpcQs6wL8s+VctpSYZV1A4KzPsS8mgAD/bLxmqxeIm+AjiQVCUFJSkpo1a0aZAyAAVt6gRYsW7nd2JwYCY3WWraQbu6wC/lld8vT0dOLmBIi4y+H9G0CIsFp93bp1U69evZSQkMCAHPAhMjJS7du318CBA5WSkuK1AvAjPj5e/fr1U5cuXdxYAtA0G6/ZWK1///6ceAgySuwAAAAAAEIGy4kBAAAAACGDJBYIQbaAgkUUQGCIG+D4ET9A4IibE4ckFghBH330kZ5++mm33iUfjoA/y5Yt05133qmNGzd6LQD8sDqxzzzzjMaOHUu9SyAA7733nmz7oYKCAq8FwUISC4SgVatWacaMGW6dWAD+7Nq1y50AyszMZPIHCIAlsdbnzJ8/3y2zA8Afmzy1foc6scFHEguEIBtQ2BcDccA/q6tcU1NDfWXgONDvAIGz/sZqkxM3wUcSC4Sg5s2bq3Xr1m69SwD+WH1lK7FjpUIA+Gdl3KzPycjIoN4lEAAbr1m/ExUV5bUgWKgTC4QgqzXWtWtX9ezZU4mJiV4rgK9itS3btWunAQMGKDU11WsF0BRLYuPi4tS3b1917tyZOrGATzZes7Ga1VgmkQ0u6sQCIciuSbIlKvbhyKw44I8tJa6urnaLzzMIBwJTUVHhJrMWP/YdQNMqKyvdZfi2Aoi4CS6SWAAAAABAyOCaWCAE2S53RUVF7mYBAPyxGXErc2BnYwEExvqckpISNkYDAmAlqfLz84mbE4AkFghBn332maZNm0aJHSAAO3bs0Pjx43XgwAGvBYAfthxy+vTpmjt3rjsZBMCfxYsXa8KECZTYOQFIYoEQtHDhQn344YfKzs5m23bApy1btuj111/Xnj17iBsgAJbEWp/z6aefksQCAZg3b57eeOMNdxUDgoskFghB5eXlKi4uZjkxEADbEK2wsNDd4AlAYKzPsaWRLIsE/LMzsNbvEDfBRxILhCDbWdW2amenO8A/28nbdvQODw8ndoAAWezQ7wCBaex3iJvgo04sEKKsVp/Vu0xKSuLDEfDBlhBnZGRo6NChbgF6AIHp37+/evXqRb1LwCfrd7p166YhQ4a45akQPJTYAQAAAACEDJYTAwAAAABCBkksAAAAACBkkMQCIWjWrFl6++23lZWVRakQwKd169bpueee086dO70WAH5YiR3rc6zMju2OD8AfK0v1/PPPU2LnBCCJBULQ0qVLNWnSJOXk5HgtAJqydetWdyC+b98+rwWAH5bETp48WTNnzqROLBCA+fPn65133iGJPQFIYoEQ1FgnlnqXgH/V1dVuvT6rF8sKBiAw1ufYQJx6l4B/1Ik9cUhigRBkZXWaNWvm1h4D4E9cXJzS09MVGxvrtQDwy/qc1NRUt84yAH+Sk5Pdfoe4CT7qxAIhyM4otWnTRv369XM/IAE0rba2VikpKTr55JOpEwsEyPqdnj17qnfv3tSJBXyylT/t27enTuwJQJ1YIATZki4bkCcmJjKYAHyqqKhwl3bZSgYGE4B/NlS0JZF2Nsnih7NKgD+2DN8mgNLS0hQREeG1IhhIYgEAAAAAIYOpNCAE2YZOtkSFjQIA/2z1AnEDHB+LHTujxLkPwD+LGdvRm7gJPpJYIAStX79eCxcuVH5+vtcCoClWWmfatGk6dOiQ1wLADyuxY33OihUr3EE5AH/WrFnj9jt2OQuCiyQWCEEzZszQa6+9pgMHDjC7B/i0du1aPfnkk9q+fTtxAwTAktjXX39d48aNc68rB+DPlClT9Mwzz6ioqMhrQbCQxAIhyDYKyM3NZUYcCIDVV87JyWFGHDgO1ufY6h+W4wP+2YZo1u/YRBCCiyQWCEF2Tax9cTYJ8M8GEVwTCxwf+h0gcI17mBA3wUedWCAE2RklqxNr9S6t+HxYWJh3C4D/jQ0krCzVqFGjlJGRQdwAPtkAvLS0VH369NGgQYMUHR3t3QLgq9jye6sTe9pppykuLs5rRTBQYgcAAAAAEDJYTgwAAAAACBkksQAAAACAkEESC4Qgq9X3ySef6MiRI2wWAPhkpXWsRIiVpgLgn22GZn3OnDlzVFlZ6bUCaMqiRYs0fvx4SlOdACSxQAhasGCBJkyYoOzsbK8FQFM2b96ssWPHavfu3V4LAD9sZ2/rc6ZOnUqJKiAAs2fPdvudkpISrwXBQhILhKC8vDwdOnSIGXEgADaIsLOwtrs3KxgA/yxebNLUVv9Q7xLwz8ZrmZmZqq2t9VoQLCSxQAiybdqtVEhERITXAqApVhYkKSlJUVFRXgsAv6zPiY+PpzQVEAAbr1m/Ex5OyhVsvKNACOrfv79bc6x58+ZeC4CmdOrUSRdddJFat27NQBwIgA3Arc8ZMWKEYmJivFYATTnppJN0wQUXuBNACC7qxAIhKDc3V1VVVW4SGxsb67UC+CrFxcUqKChQenq6EhISvFYATbGhol3CYqt/WrRowSogwCdbgm+XsLRr106RkZFeK4KBJBYAAAAAEDJYTgwAAAAACBkksUAI2rlzp9asWaOioiKvBUBTbDnk0qVL3eX4APyzOrHW52zatEk1NTVeK4CmbN261e13qCYRfCSxQAiaOHGinn32We3bt49SIYBPy5cv1913362NGzcSN0AArKzOc88959a7LC0t9VoBNGX8+PG69957VVhY6LUgWEhigRBkZ5KysrIoOg8EwDZ22rt3r8rKyrwWAH7YpI/1OVYrljqxgH85OTluv8MKhuAjiQVCkA0i7IuzSYB/tiTSCs4TN0DgGvsdAP4RNycOSSwQgqzu2Nlnn+2WCgHgT5cuXXTZZZepbdu2XgsAP6xOrPU5p5xyCnVigQAMHTpUl1xyCXViTwBK7AAhyJYR28ye1Yil7hjgT3V1tbu5RlxcnKKiorxWAH7YtbBhYWFu/FhSC6BpViPWVgAlJiYSN0FGEgsAAAAACBlMCQAAAAAAQgZJLBCCrFbfkiVLVFBQwCY1gE8HDhzQnDlz3N0iAfhnm6JZrctVq1a5y/IB+LN+/XrNnj2bOrEnAEksEILmz5+vcePG6dChQ14LgKZYfdiXX35Zu3bt8loA+GF7MFif8/HHH1PaDQjAzJkzNWbMGJWUlHgtCBaSWCAEHTx4UDt37qToPBCAvLw8dxWDFZ1nBQPgn8WL9TnUuwQCYyuANm/erKqqKq8FwUISC4Qg25E4Ojqane6AAERERLjlQew7gMBYn2O7etsOxQD8sZixfoe4CT5GwEAI6tq1qwYOHKiUlBSvBUBTWrVqpREjRrj1lRlQAP5ZvFif07dvXzeZBeBPjx49NHz4cLckIoKLEjtACMrKynJrj7Vt21YJCQleK4CvYsuJs7Oz1b59eyaAgAA0Lie2VUAdOnSgPjng0/79+93rYXv27El98iAjiQUAAAAAhAyWEwMAAAAAQgZJLBCCjhw54u54R6kDwD/blXj37t3s6g0EyBbtWZ9jO+PX1tZ6rQCaYpewWL9D3AQfSSwQgt577z099NBDbr1LrggA/Fm0aJFuueUWrV27lrgBAmAD8IcffljPP/88k0BAAF5//XX96U9/cvdkQHCRxAIhKDMzU9u3b2cwAQQgNzdXGzdudM/IAvDPJn2sz+GMEhAYW8Fg/U51dbXXgmAhiQUAAACAIGPVz4lDEguEINuqfciQIUpNTfVaADSlTZs2Ou2009SiRQuvBYAfVifW+hyrFUuZEMC/Pn366NRTT6VO7AlAiR0gBNnGTpWVlcrIyOCDEfDJlhHn5+e7cZOYmOi1AmiKDRXtMharD9uyZUtFRER4twD4KocPH3br+lt9ciaAgoskFgAAAAAQMlhODAAAAAAIGSSxQAjau3evNm3apJKSEjYNAHzKycnRmjVr3CXFAPyzfmbz5s3uDsXsTgz4Zzt6r169mt2JTwCSWCAEzZ8/X+PHj9ehQ4e8FgBNsYmfV155xR1UAPCvrq7O7XOmTJniXt8HwJ+ZM2fq1VdfdU86ILhIYoEQtHPnTndmr6ioyGsB0BSb9Fm8eLGOHj3KCgYgAPX19W6fs2HDBtXU1HitAJqybds2LVmyRBUVFV4LgoUkFghBVu7AvgAEhtgBjg+xAxwf4ubEIIkFQlDr1q3VpUsXJSQkeC0AmtKsWTP16tVLycnJDCqAAFi8dO7cWR06dKC8DhCAtm3burX9o6OjvRYECyV2gBC0Y8cO9/qKbt26KSUlxWsF8FVsObFtitajRw+1aNHCawXQFFtOvHbtWrfOpU0EMSAH/Nm6dau7meCQIUMUExPjtSIYSGIBAAAAACGD5cQAAAAAgJBBEguEINvlrrS0lHp9QACsTl9xcTG7qwLHwfqcsrIydvYGAmAlqazfsSX5CC6SWCAEvfHGG7rzzjvda2MZUAD+zJkzR9ddd51WrVpF3AABsImfu+++W48//rg7IAfgz0svveT2O7m5uV4LgoUkFghBmzdvdutd2mYBAPw5cOCAZs2apezsbK8FgB92FslqXa5cuVJVVVVeK4CmrFu3TrNnz6ZO7AlAEguEoBEjRujSSy9Vy5YtvRYATbEyB1dffbU6derktQDww8rqXHzxxTr33HMVFxfntQJoymmnneb2O4mJiV4LgoXdiYEQZMtSbDa8efPmio2N9VoBfBVbBllQUKD09HRqLAMBsKGilagKDw9XRkYGtWIBn44cOeJeF9uuXTtFRkZ6rQgGklgAAAAAQMhgOTEAAAAAIGSQxAIAAAAAQgZJLAAAAAAgZJDEAgAAAABCBkksAAAAACBESP8fzbi9Dd0N5sMAAAAASUVORK5CYII=;" parent="1" vertex="1">
                    <mxGeometry x="-830" y="10" width="945" height="457" as="geometry"/>
                </mxCell>
                <mxCell id="3" value="TODO:" style="text;html=1;align=center;verticalAlign=middle;resizable=0;points=[];autosize=1;strokeColor=none;fillColor=none;" parent="1" vertex="1">
                    <mxGeometry x="-830" y="490" width="60" height="30" as="geometry"/>
                </mxCell>
                <mxCell id="4" value="Lifeline2" style="shape=umlLifeline;perimeter=lifelinePerimeter;whiteSpace=wrap;html=1;container=1;dropTarget=0;collapsible=0;recursiveResize=0;outlineConnect=0;portConstraint=eastwest;newEdgeStyle={&quot;edgeStyle&quot;:&quot;elbowEdgeStyle&quot;,&quot;elbow&quot;:&quot;vertical&quot;,&quot;curved&quot;:0,&quot;rounded&quot;:0};" vertex="1" parent="1">
                    <mxGeometry x="480" y="210" width="100" height="300" as="geometry"/>
                </mxCell>
                <mxCell id="5" value="" style="html=1;points=[[0,0,0,0,5],[0,1,0,0,-5],[1,0,0,0,5],[1,1,0,0,-5]];perimeter=orthogonalPerimeter;outlineConnect=0;targetShapes=umlLifeline;portConstraint=eastwest;newEdgeStyle={&quot;curved&quot;:0,&quot;rounded&quot;:0};fillColor=#808080;" vertex="1" parent="4">
                    <mxGeometry x="45" y="90" width="10" height="120" as="geometry"/>
                </mxCell>
                <mxCell id="6" value=":Medi&lt;span style=&quot;color: rgb(63, 63, 63); background-color: transparent;&quot;&gt;DB&lt;/span&gt;" style="shape=umlLifeline;perimeter=lifelinePerimeter;whiteSpace=wrap;html=1;container=1;dropTarget=0;collapsible=0;recursiveResize=0;outlineConnect=0;portConstraint=eastwest;newEdgeStyle={&quot;edgeStyle&quot;:&quot;elbowEdgeStyle&quot;,&quot;elbow&quot;:&quot;vertical&quot;,&quot;curved&quot;:0,&quot;rounded&quot;:0};" vertex="1" parent="1">
                    <mxGeometry x="-90" y="560" width="100" height="440" as="geometry"/>
                </mxCell>
                <mxCell id="8" value=":Medikation" style="shape=umlLifeline;perimeter=lifelinePerimeter;whiteSpace=wrap;html=1;container=1;dropTarget=0;collapsible=0;recursiveResize=0;outlineConnect=0;portConstraint=eastwest;newEdgeStyle={&quot;edgeStyle&quot;:&quot;elbowEdgeStyle&quot;,&quot;elbow&quot;:&quot;vertical&quot;,&quot;curved&quot;:0,&quot;rounded&quot;:0};" vertex="1" parent="1">
                    <mxGeometry x="-250" y="560" width="100" height="440" as="geometry"/>
                </mxCell>
                <mxCell id="9" value="" style="html=1;points=[[0,0,0,0,5],[0,1,0,0,-5],[1,0,0,0,5],[1,1,0,0,-5]];perimeter=orthogonalPerimeter;outlineConnect=0;targetShapes=umlLifeline;portConstraint=eastwest;newEdgeStyle={&quot;curved&quot;:0,&quot;rounded&quot;:0};" vertex="1" parent="8">
                    <mxGeometry x="45" y="179" width="10" height="41" as="geometry"/>
                </mxCell>
                <mxCell id="10" value=":Verordnungen" style="shape=umlLifeline;perimeter=lifelinePerimeter;whiteSpace=wrap;html=1;container=1;dropTarget=0;collapsible=0;recursiveResize=0;outlineConnect=0;portConstraint=eastwest;newEdgeStyle={&quot;edgeStyle&quot;:&quot;elbowEdgeStyle&quot;,&quot;elbow&quot;:&quot;vertical&quot;,&quot;curved&quot;:0,&quot;rounded&quot;:0};" vertex="1" parent="1">
                    <mxGeometry x="-410" y="560" width="100" height="440" as="geometry"/>
                </mxCell>
                <mxCell id="11" value="" style="html=1;points=[[0,0,0,0,5],[0,1,0,0,-5],[1,0,0,0,5],[1,1,0,0,-5]];perimeter=orthogonalPerimeter;outlineConnect=0;targetShapes=umlLifeline;portConstraint=eastwest;newEdgeStyle={&quot;curved&quot;:0,&quot;rounded&quot;:0};" vertex="1" parent="10">
                    <mxGeometry x="45" y="90" width="10" height="50" as="geometry"/>
                </mxCell>
                <mxCell id="12" value=":UI" style="shape=umlLifeline;perimeter=lifelinePerimeter;whiteSpace=wrap;html=1;container=1;dropTarget=0;collapsible=0;recursiveResize=0;outlineConnect=0;portConstraint=eastwest;newEdgeStyle={&quot;edgeStyle&quot;:&quot;elbowEdgeStyle&quot;,&quot;elbow&quot;:&quot;vertical&quot;,&quot;curved&quot;:0,&quot;rounded&quot;:0};" vertex="1" parent="1">
                    <mxGeometry x="-640" y="560" width="100" height="440" as="geometry"/>
                </mxCell>
                <mxCell id="13" value="" style="html=1;points=[[0,0,0,0,5],[0,1,0,0,-5],[1,0,0,0,5],[1,1,0,0,-5]];perimeter=orthogonalPerimeter;outlineConnect=0;targetShapes=umlLifeline;portConstraint=eastwest;newEdgeStyle={&quot;curved&quot;:0,&quot;rounded&quot;:0};" vertex="1" parent="12">
                    <mxGeometry x="45" y="85" width="10" height="315" as="geometry"/>
                </mxCell>
                <mxCell id="37" style="edgeStyle=none;html=1;curved=0;rounded=0;endArrow=open;endFill=0;" edge="1" parent="12" target="36">
                    <mxGeometry relative="1" as="geometry">
                        <mxPoint x="80" y="397" as="targetPoint"/>
                        <mxPoint x="56" y="347" as="sourcePoint"/>
                        <Array as="points">
                            <mxPoint x="100" y="347"/>
                            <mxPoint x="100" y="357"/>
                        </Array>
                    </mxGeometry>
                </mxCell>
                <mxCell id="38" value="ausgabeMedikation(einnahme: String)" style="edgeLabel;html=1;align=center;verticalAlign=middle;resizable=0;points=[];" vertex="1" connectable="0" parent="37">
                    <mxGeometry x="0.0613" y="-2" relative="1" as="geometry">
                        <mxPoint x="97" y="-1" as="offset"/>
                    </mxGeometry>
                </mxCell>
                <mxCell id="36" value="" style="html=1;points=[[0,0,0,0,5],[0,1,0,0,-5],[1,0,0,0,5],[1,1,0,0,-5]];perimeter=orthogonalPerimeter;outlineConnect=0;targetShapes=umlLifeline;portConstraint=eastwest;newEdgeStyle={&quot;curved&quot;:0,&quot;rounded&quot;:0};" vertex="1" parent="12">
                    <mxGeometry x="51" y="350" width="10" height="30" as="geometry"/>
                </mxCell>
                <mxCell id="15" style="edgeStyle=none;html=1;exitX=1;exitY=0.5;exitDx=0;exitDy=0;" edge="1" parent="1" source="14" target="12">
                    <mxGeometry relative="1" as="geometry"/>
                </mxCell>
                <mxCell id="16" value="ausgabeMedikationsplan()" style="edgeLabel;html=1;align=center;verticalAlign=middle;resizable=0;points=[];" vertex="1" connectable="0" parent="15">
                    <mxGeometry x="-0.274" y="1" relative="1" as="geometry">
                        <mxPoint as="offset"/>
                    </mxGeometry>
                </mxCell>
                <mxCell id="14" value="" style="ellipse;fillColor=strokeColor;html=1;" vertex="1" parent="1">
                    <mxGeometry x="-840" y="630" width="30" height="30" as="geometry"/>
                </mxCell>
                <mxCell id="17" style="edgeStyle=none;html=1;curved=0;rounded=0;exitX=1;exitY=0;exitDx=0;exitDy=5;exitPerimeter=0;" edge="1" parent="1" source="13" target="11">
                    <mxGeometry relative="1" as="geometry"/>
                </mxCell>
                <mxCell id="18" value="getMedikamente(patient: Patient)" style="edgeLabel;html=1;align=center;verticalAlign=middle;resizable=0;points=[];" vertex="1" connectable="0" parent="17">
                    <mxGeometry x="-0.2441" y="-2" relative="1" as="geometry">
                        <mxPoint x="12" y="-2" as="offset"/>
                    </mxGeometry>
                </mxCell>
                <mxCell id="19" style="edgeStyle=none;html=1;curved=0;rounded=0;exitX=0;exitY=1;exitDx=0;exitDy=-5;exitPerimeter=0;dashed=1;endArrow=open;endFill=0;" edge="1" parent="1">
                    <mxGeometry relative="1" as="geometry">
                        <mxPoint x="-365" y="700" as="sourcePoint"/>
                        <mxPoint x="-585" y="700" as="targetPoint"/>
                    </mxGeometry>
                </mxCell>
                <mxCell id="20" value="medikamente" style="edgeLabel;html=1;align=center;verticalAlign=middle;resizable=0;points=[];" vertex="1" connectable="0" parent="19">
                    <mxGeometry x="-0.0098" relative="1" as="geometry">
                        <mxPoint as="offset"/>
                    </mxGeometry>
                </mxCell>
                <mxCell id="21" value="loop:" style="shape=umlFrame;whiteSpace=wrap;html=1;pointerEvents=0;recursiveResize=0;container=1;collapsible=0;width=160;height=15;" vertex="1" parent="1">
                    <mxGeometry x="-770" y="730" width="770" height="160" as="geometry"/>
                </mxCell>
                <mxCell id="26" value="opt" style="shape=umlFrame;whiteSpace=wrap;html=1;pointerEvents=0;recursiveResize=0;container=1;collapsible=0;width=160;" vertex="1" parent="21">
                    <mxGeometry x="10" y="60" width="750" height="80" as="geometry"/>
                </mxCell>
                <mxCell id="29" style="edgeStyle=none;html=1;curved=0;rounded=0;dashed=1;" edge="1" parent="26" source="6">
                    <mxGeometry relative="1" as="geometry">
                        <mxPoint x="554.9999999999998" y="60" as="sourcePoint"/>
                        <mxPoint x="175" y="60" as="targetPoint"/>
                    </mxGeometry>
                </mxCell>
                <mxCell id="30" value="einnahme: String" style="edgeLabel;html=1;align=center;verticalAlign=middle;resizable=0;points=[];" vertex="1" connectable="0" parent="29">
                    <mxGeometry x="-0.0098" relative="1" as="geometry">
                        <mxPoint as="offset"/>
                    </mxGeometry>
                </mxCell>
                <mxCell id="43" value="[einnahme == NULL]" style="text;html=1;align=center;verticalAlign=middle;resizable=0;points=[];autosize=1;strokeColor=none;fillColor=none;" vertex="1" parent="26">
                    <mxGeometry x="10" y="40" width="130" height="30" as="geometry"/>
                </mxCell>
                <mxCell id="27" style="edgeStyle=none;html=1;curved=0;rounded=0;endArrow=open;endFill=0;" edge="1" parent="21">
                    <mxGeometry relative="1" as="geometry">
                        <mxPoint x="185" y="90" as="sourcePoint"/>
                        <mxPoint x="729.5" y="90" as="targetPoint"/>
                    </mxGeometry>
                </mxCell>
                <mxCell id="28" value="getStandardMedikation(medikament)" style="edgeLabel;html=1;align=center;verticalAlign=middle;resizable=0;points=[];" vertex="1" connectable="0" parent="27">
                    <mxGeometry x="-0.2441" y="-2" relative="1" as="geometry">
                        <mxPoint x="12" y="-2" as="offset"/>
                    </mxGeometry>
                </mxCell>
                <mxCell id="42" value="[für jedes Medikament&amp;nbsp;&lt;div&gt;in medikamente]&lt;/div&gt;" style="text;html=1;align=center;verticalAlign=middle;resizable=0;points=[];autosize=1;strokeColor=none;fillColor=none;" vertex="1" parent="21">
                    <mxGeometry x="20" y="13" width="140" height="40" as="geometry"/>
                </mxCell>
                <mxCell id="22" style="edgeStyle=none;html=1;endArrow=open;endFill=0;" edge="1" parent="1">
                    <mxGeometry relative="1" as="geometry">
                        <mxPoint x="-580" y="740" as="sourcePoint"/>
                        <mxPoint x="-200.5" y="738" as="targetPoint"/>
                    </mxGeometry>
                </mxCell>
                <mxCell id="23" value="getEinnahme(medikament, patient)" style="edgeLabel;html=1;align=center;verticalAlign=middle;resizable=0;points=[];" vertex="1" connectable="0" parent="22">
                    <mxGeometry x="-0.274" y="1" relative="1" as="geometry">
                        <mxPoint as="offset"/>
                    </mxGeometry>
                </mxCell>
                <mxCell id="24" style="edgeStyle=none;html=1;curved=0;rounded=0;exitX=0;exitY=1;exitDx=0;exitDy=-5;exitPerimeter=0;dashed=1;" edge="1" parent="1">
                    <mxGeometry relative="1" as="geometry">
                        <mxPoint x="-205.00000000000023" y="779" as="sourcePoint"/>
                        <mxPoint x="-585" y="779" as="targetPoint"/>
                    </mxGeometry>
                </mxCell>
                <mxCell id="25" value="einnahme: String" style="edgeLabel;html=1;align=center;verticalAlign=middle;resizable=0;points=[];" vertex="1" connectable="0" parent="24">
                    <mxGeometry x="-0.0098" relative="1" as="geometry">
                        <mxPoint as="offset"/>
                    </mxGeometry>
                </mxCell>
                <mxCell id="7" value="" style="html=1;points=[[0,0,0,0,5],[0,1,0,0,-5],[1,0,0,0,5],[1,1,0,0,-5]];perimeter=orthogonalPerimeter;outlineConnect=0;targetShapes=umlLifeline;portConstraint=eastwest;newEdgeStyle={&quot;curved&quot;:0,&quot;rounded&quot;:0};" vertex="1" parent="1">
                    <mxGeometry x="-45" y="820" width="10" height="30" as="geometry"/>
                </mxCell>
            </root>
        </mxGraphModel>
    </diagram>
</mxfile>